<svg xmlns="http://www.w3.org/2000/svg" xmlns:xlink="http://www.w3.org/1999/xlink" width="1197" height="341.03" viewBox="0 0 1197 341.03"><defs><clipPath id="a"><rect width="1197" height="341.03" transform="translate(2406.39 1983.24)" fill="none"/></clipPath></defs><g transform="translate(-2406.39 -1983.24)"><g clip-path="url(#a)"><path d="M2408.03,2324.24h373.86l3.28-17,3.33-10.26,3.28,18.76,3.28,8.53h3.28l3.28-1.71h3.28l3.28,1.71,3.28-1.71,3.28,1.71h3.28l3.27-3.41,3.28,1.7h3.28l3.28,1.71,3.28-1.71,3.28,1.71,3.28-8.53h6.53l3.28-6.82,3.28,8.53,3.28,3.41,3.28,1.7,3.28-1.7h3.28l3.28-1.71,3.28,3.41,3.28-1.7,3.28-6.82,3.27-1.71,3.28,8.53h6.56l3.28-1.71,3.28,3.41,3.28,1.71,3.28-6.82,3.28-6.82,3.28,5.11,3.28,6.82,3.28-10.23,3.28,5.12h3.28l3.28-5.12,3.28,1.71,3.28,1.7,3.28-1.7,3.27,5.11h3.28l3.28,1.71h6.56l3.28-3.41,3.28,3.41,3.28-3.41,3.28,5.11,3.28-10.23,3.28,6.82,3.28,3.41h6.56l3.281-1.7,3.28-1.71,3.28-1.7,3.28-8.53,3.27,8.53,3.28-15.35,3.28-18.76,3.309-35.8,3.28,23.87,3.28,30.69,3.28-25.58,3.28,25.58h3.28l3.28-1.71,3.28-3.41h3.28l3.28-30.69,3.28-1.7,3.28,17,3.28,18.75,3.28,10.24,3.28-8.53,3.27-5.12,3.28,18.76,3.23-20.45,3.28,8.53,3.28,1.7,3.28,6.82,3.28-15.35,3.28,18.76,3.28-8.52,3.28,10.23,3.28,3.41h3.28l3.28-1.71,3.28-15.34,3.28,8.52,3.28,6.82,3.28-3.41h3.28l3.28,6.82,3.271-1.7,3.28-8.53,3.28,5.12,3.28,5.11h6.56l3.28-5.11,3.28,3.41,3.28-23.88h3.309l3.25,10.3,3.28,6.82,3.28,5.11h3.28l3.28-8.52,3.28-27.29,3.28,17,3.28,1.71,3.27,11.94,3.28-5.12,3.28-3.41,3.28,1.71,3.28-22.17,3.28-3.41,3.28,11.93,3.28-1.7,3.28,13.64,3.28,10.26,3.28-3.41,3.28-6.82,3.28,5.12,3.28-8.53,3.28,10.23h3.28l3.28,6.82,3.28-8.52,3.27-25.58,3.28,6.82,3.28,6.82,3.28,3.41,3.28-1.71,3.28,6.83,3.28,8.52,3.28-10.23,3.28-5.12,3.25,6.85,3.28-3.41,3.28-5.12,3.28,13.64,3.28-11.94h3.28l3.28,3.42,3.32-10.26,3.28,8.53,3.27-15.35,3.27,20.49,3.28-61.39,3.28,30.69,3.28,13.64,3.28-1.7,3.28,22.17,3.28,13.59,3.28-27.29,3.28,11.94,3.28-3.41,3.28,15.35,3.28-11.94,3.28-1.7,3.28-22.17,3.28-49.45,3.26,27.31,3.28-56.27,3.28,66.5,3.27,5.12,3.28,1.7,3.28,10.23,3.28,18.76,3.33-51.15,3.28,35.8,3.28,15.35,3.25-13.68,3.28,10.23,3.28-10.23,3.28,10.23,3.28-13.64,3.28-6.82,3.28,17.05,3.28-20.46,3.28,1.7,3.28,18.76,3.28-141.53,3.27,51.16,3.28,3.41,3.28,23.87,3.28,27.28,3.28-223.33,3.28,22.17,3.28,121.06,3.28,6.82,3.28-29,3.28,25.58,3.28,34.1,3.28,47.75,3.28,18.75,3.28,11.94,3.28-13.64,3.28,5.11,3.28-15.34h3.28l3.27,10.23,3.28-10.23,3.28,25.58,3.28,8.52,3.25-30.68,3.28,20.46,3.28-27.28,3.28,10.23,3.28-1.71,3.28,29,3.28-11.94,3.28-13.64,3.28,8.53,3.28,8.53,3.28,6.82,3.28-18.76,3.28,23.87,3.28-13.64,3.27-15.35,3.28-32.39h3.28l3.28,6.82,3.281-15.35,3.28,47.74,3.28,1.71,3.28-30.69,3.28-39.22,3.28,66.5,3.28-30.69,3.28,13.64,3.309-187.59,3.28,165.4,3.28,10.23,3.28,29,3.28-23.87,3.28,15.34,3.28,1.71,3.27,10.23" fill="none" stroke="#fff" stroke-miterlimit="10" stroke-width="3"/></g><g clip-path="url(#a)"><path d="M2413.57,2324.24c0,2.71-2.48,4.92-5.54,4.92s-5.53-2.18-5.53-4.92,2.48-4.93,5.53-4.93S2413.57,2321.55,2413.57,2324.24Z" fill="rgba(0,0,0,0)"/></g><g clip-path="url(#a)"><path d="M2416.85,2324.24c0,2.71-2.48,4.92-5.54,4.92s-5.53-2.18-5.53-4.92,2.48-4.93,5.53-4.93S2416.85,2321.55,2416.85,2324.24Z" fill="rgba(0,0,0,0)"/></g><g clip-path="url(#a)"><path d="M2420.13,2324.24c0,2.71-2.48,4.92-5.54,4.92s-5.53-2.18-5.53-4.92,2.44-4.9,5.53-4.9S2420.13,2321.55,2420.13,2324.24Z" fill="rgba(0,0,0,0)"/></g><g clip-path="url(#a)"><path d="M2423.41,2324.24c0,2.71-2.48,4.92-5.54,4.92s-5.53-2.18-5.53-4.92,2.48-4.93,5.53-4.93S2423.41,2321.55,2423.41,2324.24Z" fill="rgba(0,0,0,0)"/></g><g clip-path="url(#a)"><path d="M2426.69,2324.24c0,2.71-2.48,4.92-5.54,4.92s-5.53-2.21-5.53-4.92,2.48-4.93,5.53-4.93S2426.69,2321.55,2426.69,2324.24Z" fill="rgba(0,0,0,0)"/></g><g clip-path="url(#a)"><path d="M2429.97,2324.24c0,2.71-2.48,4.92-5.54,4.92s-5.53-2.18-5.53-4.92,2.47-4.93,5.53-4.93S2429.97,2321.55,2429.97,2324.24Z" fill="rgba(0,0,0,0)"/></g><g clip-path="url(#a)"><path d="M2433.24,2324.24c0,2.71-2.47,4.92-5.53,4.92s-5.53-2.21-5.53-4.92,2.47-4.93,5.53-4.93S2433.24,2321.55,2433.24,2324.24Z" fill="rgba(0,0,0,0)"/></g><g clip-path="url(#a)"><path d="M2436.5,2324.24c0,2.71-2.47,4.92-5.53,4.92a5.178,5.178,0,0,1-5.47-4.92c0-2.74,2.47-4.93,5.53-4.93A5.218,5.218,0,0,1,2436.5,2324.24Z" fill="rgba(0,0,0,0)"/></g><g clip-path="url(#a)"><path d="M2439.8,2324.24c0,2.71-2.47,4.92-5.53,4.92s-5.53-2.21-5.53-4.92,2.47-4.93,5.53-4.93S2439.8,2321.55,2439.8,2324.24Z" fill="rgba(0,0,0,0)"/></g><g clip-path="url(#a)"><path d="M2443.08,2324.24c0,2.71-2.47,4.92-5.53,4.92s-5.53-2.21-5.53-4.92,2.47-4.93,5.53-4.93S2443.08,2321.55,2443.08,2324.24Z" fill="rgba(0,0,0,0)"/></g><g clip-path="url(#a)"><path d="M2446.36,2324.24c0,2.71-2.48,4.92-5.53,4.92s-5.54-2.21-5.54-4.92,2.48-4.93,5.54-4.93S2446.36,2321.55,2446.36,2324.24Z" fill="rgba(0,0,0,0)"/></g><g clip-path="url(#a)"><path d="M2449.64,2324.24c0,2.71-2.48,4.92-5.53,4.92s-5.54-2.21-5.54-4.92,2.48-4.93,5.54-4.93S2449.64,2321.55,2449.64,2324.24Z" fill="rgba(0,0,0,0)"/></g><g clip-path="url(#a)"><path d="M2452.92,2324.24c0,2.71-2.48,4.92-5.53,4.92s-5.54-2.21-5.54-4.92,2.48-4.93,5.54-4.93S2452.92,2321.55,2452.92,2324.24Z" fill="rgba(0,0,0,0)"/></g><g clip-path="url(#a)"><path d="M2456.2,2324.24c0,2.71-2.48,4.92-5.53,4.92s-5.54-2.21-5.54-4.92,2.48-4.93,5.54-4.93S2456.2,2321.55,2456.2,2324.24Z" fill="rgba(0,0,0,0)"/></g><g clip-path="url(#a)"><path d="M2459.5,2324.24c0,2.71-2.48,4.92-5.53,4.92s-5.54-2.21-5.54-4.92,2.48-4.93,5.54-4.93S2459.5,2321.55,2459.5,2324.24Z" fill="rgba(0,0,0,0)"/></g><g clip-path="url(#a)"><path d="M2462.76,2324.24c0,2.71-2.48,4.92-5.53,4.92s-5.54-2.21-5.54-4.92,2.48-4.93,5.54-4.93S2462.76,2321.55,2462.76,2324.24Z" fill="rgba(0,0,0,0)"/></g><g clip-path="url(#a)"><path d="M2466.04,2324.24c0,2.71-2.48,4.92-5.53,4.92s-5.54-2.21-5.54-4.92,2.53-4.9,5.53-4.9S2466.04,2321.55,2466.04,2324.24Z" fill="rgba(0,0,0,0)"/></g><g clip-path="url(#a)"><path d="M2469.32,2324.24c0,2.71-2.48,4.92-5.54,4.92s-5.53-2.21-5.53-4.92,2.48-4.93,5.53-4.93S2469.32,2321.55,2469.32,2324.24Z" fill="rgba(0,0,0,0)"/></g><g clip-path="url(#a)"><path d="M2472.6,2324.24c0,2.71-2.48,4.92-5.54,4.92s-5.56-2.18-5.56-4.92,2.48-4.93,5.53-4.93S2472.6,2321.55,2472.6,2324.24Z" fill="rgba(0,0,0,0)"/></g><g clip-path="url(#a)"><path d="M2475.88,2324.24c0,2.71-2.48,4.92-5.54,4.92s-5.53-2.21-5.53-4.92,2.48-4.93,5.53-4.93S2475.88,2321.55,2475.88,2324.24Z" fill="rgba(0,0,0,0)"/></g><g clip-path="url(#a)"><path d="M2479.16,2324.24c0,2.71-2.48,4.92-5.54,4.92s-5.53-2.21-5.53-4.92,2.48-4.93,5.53-4.93S2479.16,2321.55,2479.16,2324.24Z" fill="rgba(0,0,0,0)"/></g><g clip-path="url(#a)"><path d="M2482.44,2324.24c0,2.71-2.48,4.92-5.54,4.92s-5.53-2.21-5.53-4.92,2.48-4.93,5.53-4.93S2482.44,2321.55,2482.44,2324.24Z" fill="rgba(0,0,0,0)"/></g><g clip-path="url(#a)"><path d="M2485.72,2324.24c0,2.71-2.48,4.92-5.54,4.92s-5.53-2.21-5.53-4.92,2.48-4.93,5.53-4.93S2485.72,2321.55,2485.72,2324.24Z" fill="rgba(0,0,0,0)"/></g><g clip-path="url(#a)"><path d="M2489,2324.24a5.306,5.306,0,0,1-5.5,5c-3,0-5.53-2.21-5.53-4.92s2.48-4.93,5.53-4.93S2489,2321.55,2489,2324.24Z" fill="rgba(0,0,0,0)"/></g><g clip-path="url(#a)"><path d="M2492.27,2324.24c0,2.71-2.47,4.92-5.53,4.92s-5.53-2.21-5.53-4.92,2.47-4.93,5.53-4.93S2492.27,2321.55,2492.27,2324.24Z" fill="rgba(0,0,0,0)"/></g><g clip-path="url(#a)"><path d="M2495.55,2324.24c0,2.71-2.47,4.92-5.53,4.92s-5.52-2.18-5.52-4.92,2.47-4.93,5.53-4.93S2495.55,2321.55,2495.55,2324.24Z" fill="rgba(0,0,0,0)"/></g><g clip-path="url(#a)"><path d="M2498.83,2324.24c0,2.71-2.47,4.92-5.53,4.92s-5.53-2.21-5.53-4.92,2.47-4.93,5.53-4.93S2498.83,2321.55,2498.83,2324.24Z" fill="rgba(0,0,0,0)"/></g><g clip-path="url(#a)"><path d="M2502.11,2324.24c0,2.71-2.47,4.92-5.53,4.92s-5.53-2.21-5.53-4.92,2.47-4.93,5.53-4.93S2502.11,2321.55,2502.11,2324.24Z" fill="rgba(0,0,0,0)"/></g><g clip-path="url(#a)"><path d="M2505.39,2324.24c0,2.71-2.48,4.92-5.53,4.92s-5.54-2.21-5.54-4.92,2.48-4.93,5.54-4.93S2505.39,2321.55,2505.39,2324.24Z" fill="rgba(0,0,0,0)"/></g><g clip-path="url(#a)"><path d="M2508.67,2324.24c0,2.71-2.48,4.92-5.53,4.92s-5.54-2.18-5.54-4.92,2.48-4.93,5.54-4.93S2508.67,2321.55,2508.67,2324.24Z" fill="rgba(0,0,0,0)"/></g><g clip-path="url(#a)"><path d="M2511.95,2324.24c0,2.71-2.48,4.92-5.53,4.92s-5.54-2.21-5.54-4.92,2.48-4.93,5.54-4.93S2511.95,2321.55,2511.95,2324.24Z" fill="rgba(0,0,0,0)"/></g><g clip-path="url(#a)"><path d="M2515.23,2324.24c0,2.71-2.48,4.92-5.53,4.92s-5.54-2.21-5.54-4.92,2.48-4.93,5.54-4.93S2515.23,2321.55,2515.23,2324.24Z" fill="rgba(0,0,0,0)"/></g><g clip-path="url(#a)"><path d="M2518.5,2324.24c0,2.71-2.48,4.92-5.53,4.92s-5.54-2.21-5.54-4.92,2.48-4.93,5.54-4.93S2518.5,2321.55,2518.5,2324.24Z" fill="rgba(0,0,0,0)"/></g><g clip-path="url(#a)"><path d="M2521.79,2324.24c0,2.71-2.48,4.92-5.53,4.92s-5.54-2.21-5.54-4.92,2.48-4.93,5.54-4.93S2521.79,2321.55,2521.79,2324.24Z" fill="rgba(0,0,0,0)"/></g><g clip-path="url(#a)"><path d="M2525.07,2324.24c0,2.71-2.48,4.92-5.53,4.92s-5.54-2.21-5.54-4.92,2.5-4.9,5.5-4.9S2525.07,2321.55,2525.07,2324.24Z" fill="rgba(0,0,0,0)"/></g><g clip-path="url(#a)"><path d="M2528.35,2324.24c0,2.71-2.48,4.92-5.54,4.92s-5.53-2.21-5.53-4.92,2.48-4.93,5.53-4.93S2528.35,2321.55,2528.35,2324.24Z" fill="rgba(0,0,0,0)"/></g><g clip-path="url(#a)"><path d="M2531.63,2324.24c0,2.71-2.48,4.92-5.54,4.92s-5.53-2.21-5.53-4.92,2.48-4.93,5.53-4.93S2531.63,2321.55,2531.63,2324.24Z" fill="rgba(0,0,0,0)"/></g><g clip-path="url(#a)"><path d="M2534.91,2324.24c0,2.71-2.48,4.92-5.54,4.92s-5.53-2.21-5.53-4.92,2.48-4.93,5.53-4.93S2534.91,2321.55,2534.91,2324.24Z" fill="rgba(0,0,0,0)"/></g><g clip-path="url(#a)"><path d="M2538.19,2324.24c0,2.71-2.48,4.92-5.54,4.92s-5.53-2.21-5.53-4.92,2.48-4.93,5.53-4.93S2538.19,2321.55,2538.19,2324.24Z" fill="rgba(0,0,0,0)"/></g><g clip-path="url(#a)"><path d="M2541.5,2324.24c0,2.71-2.48,4.92-5.54,4.92s-5.53-2.21-5.53-4.92,2.48-4.93,5.53-4.93S2541.5,2321.55,2541.5,2324.24Z" fill="rgba(0,0,0,0)"/></g><g clip-path="url(#a)"><path d="M2544.75,2324.24c0,2.71-2.48,4.92-5.54,4.92s-5.53-2.21-5.53-4.92,2.48-4.93,5.53-4.93S2544.75,2321.55,2544.75,2324.24Z" fill="rgba(0,0,0,0)"/></g><g clip-path="url(#a)"><path d="M2548.03,2324.24c0,2.71-2.48,4.92-5.54,4.92s-5.53-2.21-5.53-4.92,2.48-4.93,5.53-4.93S2548.03,2321.55,2548.03,2324.24Z" fill="rgba(0,0,0,0)"/></g><g clip-path="url(#a)"><path d="M2551.3,2324.24c0,2.71-2.47,4.92-5.53,4.92s-5.53-2.21-5.53-4.92,2.47-4.93,5.53-4.93S2551.3,2321.55,2551.3,2324.24Z" fill="rgba(0,0,0,0)"/></g><g clip-path="url(#a)"><path d="M2554.58,2324.24c0,2.71-2.47,4.92-5.53,4.92s-5.55-2.18-5.55-4.92,2.47-4.93,5.53-4.93S2554.58,2321.55,2554.58,2324.24Z" fill="rgba(0,0,0,0)"/></g><g clip-path="url(#a)"><path d="M2557.86,2324.24c0,2.71-2.47,4.92-5.53,4.92s-5.53-2.21-5.53-4.92,2.47-4.93,5.53-4.93S2557.86,2321.55,2557.86,2324.24Z" fill="rgba(0,0,0,0)"/></g><g clip-path="url(#a)"><path d="M2561.14,2324.24c0,2.71-2.47,4.92-5.53,4.92s-5.53-2.21-5.53-4.92,2.47-4.93,5.53-4.93S2561.14,2321.55,2561.14,2324.24Z" fill="rgba(0,0,0,0)"/></g><g clip-path="url(#a)"><path d="M2564.42,2324.24c0,2.71-2.47,4.92-5.53,4.92s-5.54-2.21-5.54-4.92,2.48-4.93,5.54-4.93S2564.42,2321.55,2564.42,2324.24Z" fill="rgba(0,0,0,0)"/></g><g clip-path="url(#a)"><path d="M2567.7,2324.24c0,2.71-2.48,4.92-5.53,4.92s-5.54-2.21-5.54-4.92,2.48-4.93,5.54-4.93S2567.7,2321.55,2567.7,2324.24Z" fill="rgba(0,0,0,0)"/></g><g clip-path="url(#a)"><path d="M2570.98,2324.24c0,2.71-2.48,4.92-5.53,4.92s-5.54-2.21-5.54-4.92,2.48-4.93,5.54-4.93S2570.98,2321.55,2570.98,2324.24Z" fill="rgba(0,0,0,0)"/></g><g clip-path="url(#a)"><path d="M2574.26,2324.24c0,2.71-2.48,4.92-5.53,4.92s-5.54-2.21-5.54-4.92,2.48-4.93,5.54-4.93S2574.26,2321.55,2574.26,2324.24Z" fill="rgba(0,0,0,0)"/></g><g clip-path="url(#a)"><path d="M2577.5,2324.24c0,2.71-2.48,4.92-5.53,4.92a5.184,5.184,0,0,1-5.47-4.92c0-2.74,2.48-4.93,5.54-4.93A5.209,5.209,0,0,1,2577.5,2324.24Z" fill="rgba(0,0,0,0)"/></g><g clip-path="url(#a)"><path d="M2580.82,2324.24c0,2.71-2.48,4.92-5.53,4.92s-5.54-2.21-5.54-4.92,2.48-4.93,5.54-4.93S2580.82,2321.55,2580.82,2324.24Z" fill="rgba(0,0,0,0)"/></g><g clip-path="url(#a)"><path d="M2584.1,2324.24c0,2.71-2.48,4.92-5.53,4.92s-5.54-2.21-5.54-4.92,2.48-4.93,5.54-4.93S2584.1,2321.55,2584.1,2324.24Z" fill="rgba(0,0,0,0)"/></g><g clip-path="url(#a)"><path d="M2587.38,2324.24c0,2.71-2.48,4.92-5.54,4.92s-5.53-2.21-5.53-4.92,2.48-4.93,5.53-4.93S2587.38,2321.55,2587.38,2324.24Z" fill="rgba(0,0,0,0)"/></g><g clip-path="url(#a)"><path d="M2590.66,2324.24c0,2.71-2.48,4.92-5.54,4.92s-5.53-2.21-5.53-4.92,2.48-4.93,5.53-4.93S2590.66,2321.55,2590.66,2324.24Z" fill="rgba(0,0,0,0)"/></g><g clip-path="url(#a)"><path d="M2593.94,2324.24c0,2.71-2.48,4.92-5.54,4.92s-5.53-2.21-5.53-4.92,2.48-4.93,5.53-4.93S2593.94,2321.55,2593.94,2324.24Z" fill="rgba(0,0,0,0)"/></g><g clip-path="url(#a)"><path d="M2597.22,2324.24c0,2.71-2.48,4.92-5.54,4.92s-5.53-2.21-5.53-4.92,2.48-4.93,5.53-4.93S2597.22,2321.55,2597.22,2324.24Z" fill="rgba(0,0,0,0)"/></g><g clip-path="url(#a)"><path d="M2600.5,2324.24c0,2.71-2.48,4.92-5.54,4.92s-5.53-2.21-5.53-4.92,2.48-4.93,5.53-4.93S2600.5,2321.55,2600.5,2324.24Z" fill="rgba(0,0,0,0)"/></g><g clip-path="url(#a)"><path d="M2603.78,2324.24c0,2.71-2.48,4.92-5.54,4.92s-5.53-2.21-5.53-4.92,2.48-4.93,5.53-4.93S2603.78,2321.55,2603.78,2324.24Z" fill="rgba(0,0,0,0)"/></g><g clip-path="url(#a)"><path d="M2607.06,2324.24c0,2.71-2.48,4.92-5.54,4.92s-5.53-2.21-5.53-4.92,2.51-4.9,5.51-4.9S2607.06,2321.55,2607.06,2324.24Z" fill="rgba(0,0,0,0)"/></g><g clip-path="url(#a)"><path d="M2610.34,2324.24c0,2.71-2.48,4.92-5.54,4.92s-5.53-2.21-5.53-4.92,2.47-4.93,5.53-4.93S2610.34,2321.55,2610.34,2324.24Z" fill="rgba(0,0,0,0)"/></g><g clip-path="url(#a)"><path d="M2613.61,2324.24c0,2.71-2.47,4.92-5.53,4.92s-5.53-2.21-5.53-4.92,2.47-4.93,5.53-4.93S2613.61,2321.55,2613.61,2324.24Z" fill="rgba(0,0,0,0)"/></g><g clip-path="url(#a)"><path d="M2616.89,2324.24c0,2.71-2.47,4.92-5.53,4.92s-5.53-2.21-5.53-4.92,2.47-4.93,5.53-4.93S2616.89,2321.55,2616.89,2324.24Z" fill="rgba(0,0,0,0)"/></g><g clip-path="url(#a)"><path d="M2620.17,2324.24c0,2.71-2.47,4.92-5.53,4.92s-5.53-2.21-5.53-4.92,2.47-4.93,5.53-4.93S2620.17,2321.55,2620.17,2324.24Z" fill="rgba(0,0,0,0)"/></g><g clip-path="url(#a)"><path d="M2623.5,2324.24c0,2.71-2.47,4.92-5.53,4.92s-5.54-2.21-5.54-4.92,2.48-4.93,5.54-4.93S2623.5,2321.55,2623.5,2324.24Z" fill="rgba(0,0,0,0)"/></g><g clip-path="url(#a)"><path d="M2626.73,2324.24c0,2.71-2.48,4.92-5.53,4.92s-5.54-2.21-5.54-4.92,2.48-4.93,5.54-4.93S2626.73,2321.55,2626.73,2324.24Z" fill="rgba(0,0,0,0)"/></g><g clip-path="url(#a)"><path d="M2630.01,2324.24c0,2.71-2.48,4.92-5.53,4.92s-5.54-2.21-5.54-4.92,2.48-4.93,5.54-4.93S2630.01,2321.55,2630.01,2324.24Z" fill="rgba(0,0,0,0)"/></g><g clip-path="url(#a)"><path d="M2633.29,2324.24c0,2.71-2.48,4.92-5.53,4.92s-5.54-2.21-5.54-4.92,2.48-4.93,5.54-4.93S2633.29,2321.55,2633.29,2324.24Z" fill="rgba(0,0,0,0)"/></g><g clip-path="url(#a)"><path d="M2636.57,2324.24c0,2.71-2.48,4.92-5.53,4.92s-5.54-2.18-5.54-4.92,2.48-4.93,5.54-4.93S2636.57,2321.55,2636.57,2324.24Z" fill="rgba(0,0,0,0)"/></g><g clip-path="url(#a)"><path d="M2639.85,2324.24c0,2.71-2.48,4.92-5.53,4.92s-5.54-2.21-5.54-4.92,2.48-4.93,5.54-4.93S2639.85,2321.55,2639.85,2324.24Z" fill="rgba(0,0,0,0)"/></g><g clip-path="url(#a)"><path d="M2643.13,2324.24c0,2.71-2.48,4.92-5.53,4.92s-5.54-2.21-5.54-4.92,2.48-4.93,5.54-4.93S2643.13,2321.55,2643.13,2324.24Z" fill="rgba(0,0,0,0)"/></g><g clip-path="url(#a)"><path d="M2646.41,2324.24c0,2.71-2.48,4.92-5.53,4.92s-5.54-2.21-5.54-4.92,2.48-4.93,5.54-4.93S2646.41,2321.55,2646.41,2324.24Z" fill="rgba(0,0,0,0)"/></g><g clip-path="url(#a)"><path d="M2649.69,2324.24c0,2.71-2.48,4.92-5.54,4.92s-5.53-2.21-5.53-4.92,2.48-4.93,5.53-4.93S2649.69,2321.55,2649.69,2324.24Z" fill="rgba(0,0,0,0)"/></g><g clip-path="url(#a)"><path d="M2652.97,2324.24c0,2.71-2.48,4.92-5.54,4.92s-5.53-2.21-5.53-4.92,2.48-4.93,5.53-4.93S2652.97,2321.55,2652.97,2324.24Z" fill="rgba(0,0,0,0)"/></g><g clip-path="url(#a)"><path d="M2656.25,2324.24c0,2.71-2.48,4.92-5.54,4.92s-5.53-2.21-5.53-4.92,2.48-4.93,5.53-4.93S2656.25,2321.55,2656.25,2324.24Z" fill="rgba(0,0,0,0)"/></g><g clip-path="url(#a)"><path d="M2659.5,2324.24c0,2.71-2.48,4.92-5.54,4.92a5.168,5.168,0,0,1-5.46-4.92c0-2.74,2.48-4.93,5.53-4.93A5.224,5.224,0,0,1,2659.5,2324.24Z" fill="rgba(0,0,0,0)"/></g><g clip-path="url(#a)"><path d="M2662.81,2324.24c0,2.71-2.48,4.92-5.54,4.92s-5.53-2.21-5.53-4.92,2.48-4.93,5.53-4.93S2662.81,2321.55,2662.81,2324.24Z" fill="rgba(0,0,0,0)"/></g><g clip-path="url(#a)"><path d="M2666.09,2324.24c0,2.71-2.48,4.92-5.54,4.92s-5.53-2.21-5.53-4.92,2.48-4.93,5.53-4.93S2666.09,2321.55,2666.09,2324.24Z" fill="rgba(0,0,0,0)"/></g><g clip-path="url(#a)"><path d="M2669.37,2324.24c0,2.71-2.48,4.92-5.54,4.92s-5.53-2.21-5.53-4.92,2.47-4.93,5.53-4.93S2669.37,2321.55,2669.37,2324.24Z" fill="rgba(0,0,0,0)"/></g><g clip-path="url(#a)"><path d="M2672.64,2324.24c0,2.71-2.47,4.92-5.53,4.92s-5.53-2.21-5.53-4.92,2.47-4.93,5.53-4.93S2672.64,2321.55,2672.64,2324.24Z" fill="rgba(0,0,0,0)"/></g><g clip-path="url(#a)"><path d="M2675.92,2324.24c0,2.71-2.47,4.92-5.53,4.92s-5.53-2.21-5.53-4.92,2.47-4.93,5.53-4.93S2675.92,2321.55,2675.92,2324.24Z" fill="rgba(0,0,0,0)"/></g><g clip-path="url(#a)"><path d="M2679.2,2324.24c0,2.71-2.47,4.92-5.53,4.92s-5.53-2.21-5.53-4.92,2.47-4.93,5.53-4.93S2679.2,2321.55,2679.2,2324.24Z" fill="rgba(0,0,0,0)"/></g><g clip-path="url(#a)"><path d="M2682.5,2324.24c0,2.71-2.47,4.92-5.53,4.92s-5.53-2.21-5.53-4.92,2.47-4.93,5.53-4.93S2682.5,2321.55,2682.5,2324.24Z" fill="rgba(0,0,0,0)"/></g><g clip-path="url(#a)"><path d="M2685.76,2324.24c0,2.71-2.48,4.92-5.53,4.92s-5.54-2.21-5.54-4.92,2.48-4.93,5.54-4.93S2685.76,2321.55,2685.76,2324.24Z" fill="rgba(0,0,0,0)"/></g><g clip-path="url(#a)"><path d="M2689.04,2324.24c0,2.71-2.48,4.92-5.53,4.92s-5.54-2.21-5.54-4.92,2.53-4.9,5.53-4.9S2689.04,2321.55,2689.04,2324.24Z" fill="rgba(0,0,0,0)"/></g><g clip-path="url(#a)"><path d="M2692.32,2324.24c0,2.71-2.48,4.92-5.53,4.92s-5.54-2.21-5.54-4.92,2.48-4.93,5.54-4.93S2692.32,2321.55,2692.32,2324.24Z" fill="rgba(0,0,0,0)"/></g><g clip-path="url(#a)"><path d="M2695.6,2324.24c0,2.71-2.48,4.92-5.53,4.92s-5.57-2.18-5.57-4.92,2.48-4.93,5.54-4.93S2695.6,2321.55,2695.6,2324.24Z" fill="rgba(0,0,0,0)"/></g><g clip-path="url(#a)"><path d="M2698.88,2324.24c0,2.71-2.48,4.92-5.53,4.92s-5.54-2.21-5.54-4.92,2.48-4.93,5.54-4.93S2698.88,2321.55,2698.88,2324.24Z" fill="rgba(0,0,0,0)"/></g><g clip-path="url(#a)"><path d="M2702.16,2324.24c0,2.71-2.48,4.92-5.53,4.92s-5.54-2.21-5.54-4.92,2.48-4.93,5.54-4.93S2702.16,2321.55,2702.16,2324.24Z" fill="rgba(0,0,0,0)"/></g><g clip-path="url(#a)"><path d="M2705.44,2324.24c0,2.71-2.48,4.92-5.53,4.92s-5.54-2.21-5.54-4.92,2.48-4.93,5.54-4.93S2705.44,2321.55,2705.44,2324.24Z" fill="rgba(0,0,0,0)"/></g><g clip-path="url(#a)"><path d="M2708.72,2324.24c0,2.71-2.48,4.92-5.54,4.92s-5.53-2.21-5.53-4.92,2.48-4.93,5.53-4.93S2708.72,2321.55,2708.72,2324.24Z" fill="rgba(0,0,0,0)"/></g><g clip-path="url(#a)"><path d="M2712,2324.24c0,2.71-2.48,4.92-5.54,4.92s-5.53-2.21-5.53-4.92,2.48-4.93,5.53-4.93S2712,2321.55,2712,2324.24Z" fill="rgba(0,0,0,0)"/></g><g clip-path="url(#a)"><path d="M2715.28,2324.24c0,2.71-2.48,4.92-5.54,4.92s-5.53-2.21-5.53-4.92,2.48-4.93,5.53-4.93S2715.28,2321.55,2715.28,2324.24Z" fill="rgba(0,0,0,0)"/></g><g clip-path="url(#a)"><path d="M2718.56,2324.24c0,2.71-2.48,4.92-5.54,4.92s-5.52-2.18-5.52-4.92,2.48-4.93,5.53-4.93S2718.56,2321.55,2718.56,2324.24Z" fill="rgba(0,0,0,0)"/></g><g clip-path="url(#a)"><path d="M2721.84,2324.24c0,2.71-2.48,4.92-5.54,4.92s-5.53-2.21-5.53-4.92,2.48-4.93,5.53-4.93S2721.84,2321.55,2721.84,2324.24Z" fill="rgba(0,0,0,0)"/></g><g clip-path="url(#a)"><path d="M2725.12,2324.24c0,2.71-2.48,4.92-5.54,4.92s-5.53-2.21-5.53-4.92,2.48-4.93,5.53-4.93S2725.12,2321.55,2725.12,2324.24Z" fill="rgba(0,0,0,0)"/></g><g clip-path="url(#a)"><path d="M2728.4,2324.24c0,2.71-2.48,4.92-5.54,4.92s-5.53-2.21-5.53-4.92,2.48-4.93,5.53-4.93S2728.4,2321.55,2728.4,2324.24Z" fill="rgba(0,0,0,0)"/></g><g clip-path="url(#a)"><path d="M2731.67,2324.24c0,2.71-2.47,4.92-5.53,4.92s-5.53-2.21-5.53-4.92,2.47-4.93,5.53-4.93S2731.67,2321.55,2731.67,2324.24Z" fill="rgba(0,0,0,0)"/></g><g clip-path="url(#a)"><path d="M2734.95,2324.24c0,2.71-2.47,4.92-5.53,4.92s-5.53-2.21-5.53-4.92,2.47-4.93,5.53-4.93S2734.95,2321.55,2734.95,2324.24Z" fill="rgba(0,0,0,0)"/></g><g clip-path="url(#a)"><path d="M2738.23,2324.24c0,2.71-2.47,4.92-5.53,4.92s-5.53-2.21-5.53-4.92,2.47-4.93,5.53-4.93S2738.23,2321.55,2738.23,2324.24Z" fill="rgba(0,0,0,0)"/></g><g clip-path="url(#a)"><path d="M2741.5,2324.24c0,2.71-2.47,4.92-5.53,4.92a5.178,5.178,0,0,1-5.47-4.92c0-2.74,2.47-4.93,5.53-4.93A5.218,5.218,0,0,1,2741.5,2324.24Z" fill="rgba(0,0,0,0)"/></g><g clip-path="url(#a)"><path d="M2744.79,2324.24c0,2.71-2.48,4.92-5.53,4.92s-5.54-2.21-5.54-4.92,2.48-4.93,5.54-4.93S2744.79,2321.55,2744.79,2324.24Z" fill="rgba(0,0,0,0)"/></g><g clip-path="url(#a)"><path d="M2748.07,2324.24c0,2.71-2.48,4.92-5.53,4.92s-5.54-2.21-5.54-4.92,2.5-4.9,5.5-4.9S2748.07,2321.55,2748.07,2324.24Z" fill="rgba(0,0,0,0)"/></g><g clip-path="url(#a)"><path d="M2751.35,2324.24c0,2.71-2.48,4.92-5.53,4.92s-5.54-2.21-5.54-4.92,2.48-4.93,5.54-4.93S2751.35,2321.55,2751.35,2324.24Z" fill="rgba(0,0,0,0)"/></g><g clip-path="url(#a)"><path d="M2754.63,2324.24c0,2.71-2.48,4.92-5.53,4.92s-5.54-2.21-5.54-4.92,2.48-4.93,5.54-4.93S2754.63,2321.55,2754.63,2324.24Z" fill="rgba(0,0,0,0)"/></g><g clip-path="url(#a)"><path d="M2757.91,2324.24c0,2.71-2.48,4.92-5.53,4.92s-5.54-2.21-5.54-4.92,2.48-4.93,5.54-4.93S2757.91,2321.55,2757.91,2324.24Z" fill="rgba(0,0,0,0)"/></g><g clip-path="url(#a)"><path d="M2761.19,2324.24c0,2.71-2.48,4.92-5.53,4.92s-5.54-2.21-5.54-4.92,2.48-4.93,5.54-4.93S2761.19,2321.55,2761.19,2324.24Z" fill="rgba(0,0,0,0)"/></g><g clip-path="url(#a)"><path d="M2764.5,2324.24c0,2.71-2.48,4.92-5.53,4.92s-5.54-2.21-5.54-4.92,2.48-4.93,5.54-4.93S2764.5,2321.55,2764.5,2324.24Z" fill="rgba(0,0,0,0)"/></g><g clip-path="url(#a)"><path d="M2767.75,2324.24c0,2.71-2.48,4.92-5.54,4.92s-5.53-2.21-5.53-4.92,2.48-4.93,5.53-4.93S2767.75,2321.55,2767.75,2324.24Z" fill="rgba(0,0,0,0)"/></g><g clip-path="url(#a)"><path d="M2771.03,2324.24c0,2.71-2.48,4.92-5.54,4.92s-5.53-2.21-5.53-4.92,2.48-4.93,5.53-4.93S2771.03,2321.55,2771.03,2324.24Z" fill="rgba(0,0,0,0)"/></g><g clip-path="url(#a)"><path d="M2774.31,2324.24c0,2.71-2.48,4.92-5.54,4.92s-5.53-2.21-5.53-4.92,2.48-4.93,5.53-4.93S2774.31,2321.55,2774.31,2324.24Z" fill="rgba(0,0,0,0)"/></g><g clip-path="url(#a)"><path d="M2777.59,2324.24c0,2.71-2.48,4.92-5.54,4.92s-5.55-2.18-5.55-4.92,2.48-4.93,5.53-4.93S2777.59,2321.55,2777.59,2324.24Z" fill="rgba(0,0,0,0)"/></g><g clip-path="url(#a)"><path d="M2780.87,2324.24c0,2.71-2.48,4.92-5.54,4.92s-5.53-2.21-5.53-4.92,2.48-4.93,5.53-4.93S2780.87,2321.55,2780.87,2324.24Z" fill="rgba(0,0,0,0)"/></g><g clip-path="url(#a)"><path d="M2784.15,2324.24c0,2.71-2.48,4.92-5.54,4.92s-5.53-2.21-5.53-4.92,2.48-4.93,5.53-4.93S2784.15,2321.55,2784.15,2324.24Z" fill="rgba(0,0,0,0)"/></g><g clip-path="url(#a)"><path d="M2787.43,2324.24c0,2.71-2.48,4.92-5.54,4.92s-5.53-2.21-5.53-4.92,2.48-4.93,5.53-4.93S2787.43,2321.55,2787.43,2324.24Z" fill="rgba(0,0,0,0)"/></g><g clip-path="url(#a)"><path d="M2790.7,2307.24c0,2.71-2.47,4.92-5.53,4.92s-5.53-2.21-5.53-4.92,2.47-4.93,5.53-4.93S2790.7,2304.5,2790.7,2307.24Z" fill="rgba(0,0,0,0)"/></g><g clip-path="url(#a)"><path d="M2793.98,2296.98c0,2.72-2.47,4.93-5.53,4.93s-5.53-2.21-5.53-4.93,2.47-4.92,5.53-4.92S2793.98,2294.24,2793.98,2296.98Z" fill="rgba(0,0,0,0)"/></g><g clip-path="url(#a)"><path d="M2797.26,2315.74c0,2.72-2.47,4.92-5.53,4.92s-5.53-2.2-5.53-4.92,2.47-4.92,5.53-4.92S2797.26,2313.02,2797.26,2315.74Z" fill="rgba(0,0,0,0)"/></g><g clip-path="url(#a)"><path d="M2800.5,2324.24c0,2.71-2.47,4.92-5.53,4.92a5.178,5.178,0,0,1-5.47-4.92c0-2.74,2.47-4.93,5.53-4.93A5.218,5.218,0,0,1,2800.5,2324.24Z" fill="rgba(0,0,0,0)"/></g><g clip-path="url(#a)"><path d="M2803.82,2324.24c0,2.71-2.47,4.92-5.53,4.92s-5.54-2.21-5.54-4.92,2.48-4.93,5.54-4.93S2803.82,2321.55,2803.82,2324.24Z" fill="rgba(0,0,0,0)"/></g><g clip-path="url(#a)"><path d="M2807.1,2322.56c0,2.72-2.48,4.92-5.53,4.92s-5.54-2.2-5.54-4.92,2.48-4.92,5.54-4.92S2807.1,2319.84,2807.1,2322.56Z" fill="rgba(0,0,0,0)"/></g><g clip-path="url(#a)"><path d="M2810.38,2322.56c0,2.72-2.48,4.92-5.53,4.92s-5.54-2.2-5.54-4.92,2.48-4.92,5.54-4.92S2810.38,2319.84,2810.38,2322.56Z" fill="rgba(0,0,0,0)"/></g><g clip-path="url(#a)"><path d="M2813.66,2324.24c0,2.71-2.48,4.92-5.53,4.92s-5.54-2.21-5.54-4.92,2.48-4.93,5.54-4.93S2813.66,2321.55,2813.66,2324.24Z" fill="rgba(0,0,0,0)"/></g><g clip-path="url(#a)"><path d="M2816.94,2322.56c0,2.72-2.48,4.92-5.53,4.92s-5.54-2.2-5.54-4.92,2.48-4.92,5.54-4.92S2816.94,2319.84,2816.94,2322.56Z" fill="rgba(0,0,0,0)"/></g><g clip-path="url(#a)"><path d="M2820.22,2324.24c0,2.71-2.48,4.92-5.53,4.92s-5.54-2.21-5.54-4.92,2.48-4.93,5.54-4.93S2820.22,2321.55,2820.22,2324.24Z" fill="rgba(0,0,0,0)"/></g><g clip-path="url(#a)"><path d="M2823.5,2324.24c0,2.71-2.48,4.92-5.53,4.92s-5.54-2.21-5.54-4.92,2.48-4.93,5.54-4.93S2823.5,2321.55,2823.5,2324.24Z" fill="rgba(0,0,0,0)"/></g><g clip-path="url(#a)"><path d="M2826.78,2320.86c0,2.71-2.48,4.92-5.54,4.92s-5.53-2.21-5.53-4.92,2.48-4.93,5.53-4.93S2826.78,2318.14,2826.78,2320.86Z" fill="rgba(0,0,0,0)"/></g><g clip-path="url(#a)"><path d="M2830.06,2322.56c0,2.72-2.48,4.92-5.54,4.92s-5.53-2.2-5.53-4.92,2.51-4.92,5.51-4.92S2830.06,2319.84,2830.06,2322.56Z" fill="rgba(0,0,0,0)"/></g><g clip-path="url(#a)"><path d="M2833.34,2322.56c0,2.72-2.48,4.92-5.54,4.92s-5.53-2.2-5.53-4.92,2.48-4.92,5.53-4.92S2833.34,2319.84,2833.34,2322.56Z" fill="rgba(0,0,0,0)"/></g><g clip-path="url(#a)"><path d="M2836.62,2324.24c0,2.71-2.48,4.92-5.54,4.92s-5.53-2.21-5.53-4.92,2.48-4.93,5.53-4.93S2836.62,2321.55,2836.62,2324.24Z" fill="rgba(0,0,0,0)"/></g><g clip-path="url(#a)"><path d="M2839.9,2322.56c0,2.72-2.48,4.92-5.54,4.92s-5.53-2.2-5.53-4.92,2.48-4.92,5.53-4.92S2839.9,2319.84,2839.9,2322.56Z" fill="rgba(0,0,0,0)"/></g><g clip-path="url(#a)"><path d="M2843.18,2324.24c0,2.71-2.48,4.92-5.54,4.92s-5.53-2.21-5.53-4.92,2.48-4.93,5.53-4.93S2843.18,2321.55,2843.18,2324.24Z" fill="rgba(0,0,0,0)"/></g><g clip-path="url(#a)"><path d="M2846.5,2315.74c0,2.72-2.48,4.92-5.54,4.92s-5.53-2.2-5.53-4.92,2.48-4.92,5.53-4.92S2846.5,2313.02,2846.5,2315.74Z" fill="rgba(0,0,0,0)"/></g><g clip-path="url(#a)"><path d="M2849.74,2315.74c0,2.72-2.48,4.92-5.54,4.92s-5.53-2.2-5.53-4.92,2.47-4.92,5.53-4.92S2849.74,2313.02,2849.74,2315.74Z" fill="rgba(0,0,0,0)"/></g><g clip-path="url(#a)"><path d="M2853.01,2315.74c0,2.72-2.47,4.92-5.53,4.92s-5.53-2.2-5.53-4.92,2.47-4.92,5.53-4.92S2853.01,2313.02,2853.01,2315.74Z" fill="rgba(0,0,0,0)"/></g><g clip-path="url(#a)"><path d="M2856.29,2308.92c0,2.72-2.47,4.92-5.53,4.92s-5.53-2.2-5.53-4.92,2.47-4.92,5.53-4.92S2856.29,2306.24,2856.29,2308.92Z" fill="rgba(0,0,0,0)"/></g><g clip-path="url(#a)"><path d="M2859.57,2317.45c0,2.71-2.47,4.92-5.53,4.92s-5.53-2.21-5.53-4.92,2.47-4.93,5.53-4.93S2859.57,2314.73,2859.57,2317.45Z" fill="rgba(0,0,0,0)"/></g><g clip-path="url(#a)"><path d="M2862.85,2320.86c0,2.71-2.47,4.92-5.53,4.92s-5.54-2.21-5.54-4.92,2.48-4.93,5.54-4.93S2862.85,2318.14,2862.85,2320.86Z" fill="rgba(0,0,0,0)"/></g><g clip-path="url(#a)"><path d="M2866.13,2322.56c0,2.72-2.48,4.92-5.53,4.92s-5.54-2.2-5.54-4.92,2.48-4.92,5.54-4.92S2866.13,2319.84,2866.13,2322.56Z" fill="rgba(0,0,0,0)"/></g><g clip-path="url(#a)"><path d="M2869.41,2320.86c0,2.71-2.48,4.92-5.53,4.92s-5.54-2.21-5.54-4.92,2.48-4.93,5.54-4.93S2869.41,2318.14,2869.41,2320.86Z" fill="rgba(0,0,0,0)"/></g><g clip-path="url(#a)"><path d="M2872.69,2320.86c0,2.71-2.48,4.92-5.53,4.92s-5.54-2.21-5.54-4.92,2.48-4.93,5.54-4.93S2872.69,2318.14,2872.69,2320.86Z" fill="rgba(0,0,0,0)"/></g><g clip-path="url(#a)"><path d="M2875.97,2319.15c0,2.72-2.48,4.92-5.53,4.92s-5.54-2.2-5.54-4.92,2.48-4.92,5.54-4.92S2875.97,2316.43,2875.97,2319.15Z" fill="rgba(0,0,0,0)"/></g><g clip-path="url(#a)"><path d="M2879.25,2322.56c0,2.72-2.48,4.92-5.53,4.92s-5.54-2.2-5.54-4.92,2.48-4.92,5.54-4.92S2879.25,2319.84,2879.25,2322.56Z" fill="rgba(0,0,0,0)"/></g><g clip-path="url(#a)"><path d="M2882.5,2320.86c0,2.71-2.48,4.92-5.53,4.92s-5.54-2.21-5.54-4.92,2.48-4.93,5.54-4.93S2882.5,2318.14,2882.5,2320.86Z" fill="rgba(0,0,0,0)"/></g><g clip-path="url(#a)"><path d="M2885.81,2314.04c0,2.71-2.48,4.92-5.53,4.92s-5.54-2.21-5.54-4.92,2.48-4.93,5.54-4.93S2885.81,2311.32,2885.81,2314.04Z" fill="rgba(0,0,0,0)"/></g><g clip-path="url(#a)"><path d="M2889.09,2312.33c0,2.72-2.48,4.92-5.54,4.92s-5.53-2.2-5.53-4.92,2.48-4.92,5.53-4.92S2889.09,2309.61,2889.09,2312.33Z" fill="rgba(0,0,0,0)"/></g><g clip-path="url(#a)"><path d="M2892.37,2320.86c0,2.71-2.48,4.92-5.54,4.92s-5.53-2.21-5.53-4.92,2.48-4.93,5.53-4.93S2892.37,2318.14,2892.37,2320.86Z" fill="rgba(0,0,0,0)"/></g><g clip-path="url(#a)"><path d="M2895.65,2320.86c0,2.71-2.48,4.92-5.54,4.92s-5.53-2.21-5.53-4.92,2.48-4.93,5.53-4.93S2895.65,2318.14,2895.65,2320.86Z" fill="rgba(0,0,0,0)"/></g><g clip-path="url(#a)"><path d="M2898.93,2320.86c0,2.71-2.48,4.92-5.54,4.92s-5.53-2.21-5.53-4.92,2.48-4.93,5.53-4.93S2898.93,2318.14,2898.93,2320.86Z" fill="rgba(0,0,0,0)"/></g><g clip-path="url(#a)"><path d="M2902.21,2319.15c0,2.72-2.48,4.92-5.54,4.92s-5.53-2.2-5.53-4.92,2.48-4.92,5.53-4.92S2902.21,2316.43,2902.21,2319.15Z" fill="rgba(0,0,0,0)"/></g><g clip-path="url(#a)"><path d="M2905.5,2322.56c0,2.72-2.48,4.92-5.54,4.92s-5.53-2.2-5.53-4.92,2.48-4.92,5.53-4.92S2905.5,2319.84,2905.5,2322.56Z" fill="rgba(0,0,0,0)"/></g><g clip-path="url(#a)"><path d="M2908.77,2324.24c0,2.71-2.48,4.92-5.54,4.92s-5.53-2.21-5.53-4.92,2.47-4.93,5.53-4.93S2908.77,2321.55,2908.77,2324.24Z" fill="rgba(0,0,0,0)"/></g><g clip-path="url(#a)"><path d="M2912.04,2317.45c0,2.71-2.47,4.92-5.53,4.92s-5.53-2.21-5.53-4.92,2.47-4.93,5.53-4.93S2912.04,2314.73,2912.04,2317.45Z" fill="rgba(0,0,0,0)"/></g><g clip-path="url(#a)"><path d="M2915.32,2310.63c0,2.71-2.47,4.92-5.53,4.92s-5.53-2.21-5.53-4.92,2.47-4.93,5.53-4.93S2915.32,2307.91,2915.32,2310.63Z" fill="rgba(0,0,0,0)"/></g><g clip-path="url(#a)"><path d="M2918.6,2315.74c0,2.72-2.47,4.92-5.53,4.92s-5.53-2.2-5.53-4.92,2.47-4.92,5.53-4.92S2918.6,2313.02,2918.6,2315.74Z" fill="rgba(0,0,0,0)"/></g><g clip-path="url(#a)"><path d="M2921.88,2322.56c0,2.72-2.47,4.92-5.53,4.92s-5.53-2.2-5.53-4.92,2.47-4.92,5.53-4.92S2921.88,2319.84,2921.88,2322.56Z" fill="rgba(0,0,0,0)"/></g><g clip-path="url(#a)"><path d="M2925.16,2312.33c0,2.72-2.48,4.92-5.53,4.92s-5.54-2.2-5.54-4.92,2.48-4.92,5.54-4.92S2925.16,2309.61,2925.16,2312.33Z" fill="rgba(0,0,0,0)"/></g><g clip-path="url(#a)"><path d="M2928.44,2317.45c0,2.71-2.48,4.92-5.53,4.92s-5.54-2.21-5.54-4.92,2.48-4.93,5.54-4.93S2928.44,2314.73,2928.44,2317.45Z" fill="rgba(0,0,0,0)"/></g><g clip-path="url(#a)"><path d="M2931.72,2317.45c0,2.71-2.48,4.92-5.53,4.92s-5.54-2.21-5.54-4.92,2.48-4.93,5.54-4.93S2931.72,2314.73,2931.72,2317.45Z" fill="rgba(0,0,0,0)"/></g><g clip-path="url(#a)"><path d="M2935,2312.33c0,2.72-2.48,4.92-5.53,4.92s-5.54-2.2-5.54-4.92,2.48-4.92,5.54-4.92S2935,2309.61,2935,2312.33Z" fill="rgba(0,0,0,0)"/></g><g clip-path="url(#a)"><path d="M2938.28,2314.04c0,2.71-2.48,4.92-5.53,4.92s-5.54-2.21-5.54-4.92,2.48-4.93,5.54-4.93S2938.28,2311.32,2938.28,2314.04Z" fill="rgba(0,0,0,0)"/></g><g clip-path="url(#a)"><path d="M2941.56,2315.74c0,2.72-2.48,4.92-5.53,4.92s-5.54-2.2-5.54-4.92,2.48-4.92,5.54-4.92S2941.56,2313.02,2941.56,2315.74Z" fill="rgba(0,0,0,0)"/></g><g clip-path="url(#a)"><path d="M2944.84,2314.04c0,2.71-2.48,4.92-5.53,4.92s-5.54-2.21-5.54-4.92,2.48-4.93,5.54-4.93S2944.84,2311.32,2944.84,2314.04Z" fill="rgba(0,0,0,0)"/></g><g clip-path="url(#a)"><path d="M2948.12,2319.15c0,2.72-2.48,4.92-5.54,4.92s-5.53-2.2-5.53-4.92,2.45-4.91,5.53-4.91S2948.12,2316.43,2948.12,2319.15Z" fill="rgba(0,0,0,0)"/></g><g clip-path="url(#a)"><path d="M2951.4,2319.15c0,2.72-2.48,4.92-5.54,4.92s-5.53-2.2-5.53-4.92,2.48-4.92,5.53-4.92S2951.4,2316.43,2951.4,2319.15Z" fill="rgba(0,0,0,0)"/></g><g clip-path="url(#a)"><path d="M2954.68,2320.86c0,2.71-2.48,4.92-5.54,4.92s-5.53-2.21-5.53-4.92,2.48-4.93,5.53-4.93S2954.68,2318.14,2954.68,2320.86Z" fill="rgba(0,0,0,0)"/></g><g clip-path="url(#a)"><path d="M2957.96,2320.86c0,2.71-2.48,4.92-5.54,4.92s-5.53-2.21-5.53-4.92,2.48-4.93,5.53-4.93S2957.96,2318.14,2957.96,2320.86Z" fill="rgba(0,0,0,0)"/></g><g clip-path="url(#a)"><path d="M2961.24,2320.86c0,2.71-2.48,4.92-5.54,4.92s-5.53-2.21-5.53-4.92,2.48-4.93,5.53-4.93S2961.24,2318.14,2961.24,2320.86Z" fill="rgba(0,0,0,0)"/></g><g clip-path="url(#a)"><path d="M2964.5,2317.45c0,2.71-2.48,4.92-5.54,4.92s-5.53-2.21-5.53-4.92,2.48-4.93,5.53-4.93S2964.5,2314.73,2964.5,2317.45Z" fill="rgba(0,0,0,0)"/></g><g clip-path="url(#a)"><path d="M2967.8,2320.86c0,2.71-2.48,4.92-5.54,4.92s-5.53-2.21-5.53-4.92,2.48-4.93,5.53-4.93S2967.8,2318.14,2967.8,2320.86Z" fill="rgba(0,0,0,0)"/></g><g clip-path="url(#a)"><path d="M2971.07,2317.45c0,2.71-2.47,4.92-5.53,4.92s-5.53-2.21-5.53-4.92,2.47-4.93,5.53-4.93S2971.07,2314.73,2971.07,2317.45Z" fill="rgba(0,0,0,0)"/></g><g clip-path="url(#a)"><path d="M2974.35,2322.56c0,2.72-2.47,4.92-5.53,4.92s-5.53-2.2-5.53-4.92,2.47-4.92,5.53-4.92S2974.35,2319.84,2974.35,2322.56Z" fill="rgba(0,0,0,0)"/></g><g clip-path="url(#a)"><path d="M2977.63,2312.33c0,2.72-2.47,4.92-5.53,4.92s-5.53-2.2-5.53-4.92,2.47-4.92,5.53-4.92S2977.63,2309.61,2977.63,2312.33Z" fill="rgba(0,0,0,0)"/></g><g clip-path="url(#a)"><path d="M2980.91,2319.15c0,2.72-2.47,4.92-5.53,4.92s-5.53-2.2-5.53-4.92,2.47-4.92,5.53-4.92S2980.91,2316.43,2980.91,2319.15Z" fill="rgba(0,0,0,0)"/></g><g clip-path="url(#a)"><path d="M2984.19,2322.56c0,2.72-2.48,4.92-5.53,4.92s-5.54-2.2-5.54-4.92,2.48-4.92,5.54-4.92S2984.19,2319.84,2984.19,2322.56Z" fill="rgba(0,0,0,0)"/></g><g clip-path="url(#a)"><path d="M2987.5,2322.56c0,2.72-2.48,4.92-5.53,4.92s-5.54-2.2-5.54-4.92,2.48-4.92,5.54-4.92S2987.5,2319.84,2987.5,2322.56Z" fill="rgba(0,0,0,0)"/></g><g clip-path="url(#a)"><path d="M2990.75,2322.56c0,2.72-2.48,4.92-5.53,4.92s-5.54-2.2-5.54-4.92,2.48-4.92,5.54-4.92S2990.75,2319.84,2990.75,2322.56Z" fill="rgba(0,0,0,0)"/></g><g clip-path="url(#a)"><path d="M2994.03,2320.86c0,2.71-2.48,4.92-5.53,4.92s-5.54-2.21-5.54-4.92,2.48-4.93,5.54-4.93S2994.03,2318.14,2994.03,2320.86Z" fill="rgba(0,0,0,0)"/></g><g clip-path="url(#a)"><path d="M2997.31,2319.15c0,2.72-2.48,4.92-5.53,4.92s-5.54-2.2-5.54-4.92,2.48-4.92,5.54-4.92S2997.31,2316.43,2997.31,2319.15Z" fill="rgba(0,0,0,0)"/></g><g clip-path="url(#a)"><path d="M3000.59,2317.45c0,2.71-2.48,4.92-5.53,4.92s-5.54-2.21-5.54-4.92,2.48-4.93,5.54-4.93S3000.59,2314.73,3000.59,2317.45Z" fill="rgba(0,0,0,0)"/></g><g clip-path="url(#a)"><path d="M3003.87,2308.92c0,2.72-2.48,4.92-5.53,4.92s-5.54-2.2-5.54-4.92,2.48-4.92,5.54-4.92S3003.87,2306.24,3003.87,2308.92Z" fill="rgba(0,0,0,0)"/></g><g clip-path="url(#a)"><path d="M3007.15,2317.45c0,2.71-2.48,4.92-5.54,4.92s-5.53-2.21-5.53-4.92,2.48-4.93,5.53-4.93S3007.15,2314.73,3007.15,2317.45Z" fill="rgba(0,0,0,0)"/></g><g clip-path="url(#a)"><path d="M3010.43,2302.1c0,2.72-2.48,4.92-5.54,4.92s-5.53-2.2-5.53-4.92,2.48-4.92,5.53-4.92S3010.43,2299.38,3010.43,2302.1Z" fill="rgba(0,0,0,0)"/></g><g clip-path="url(#a)"><path d="M3013.71,2283.34c0,2.72-2.48,4.93-5.54,4.93s-5.53-2.21-5.53-4.93,2.48-4.92,5.53-4.92S3013.71,2280.63,3013.71,2283.34Z" fill="rgba(0,0,0,0)"/></g><g clip-path="url(#a)"><path d="M3016.99,2247.54c0,2.71-2.48,4.92-5.54,4.92s-5.53-2.21-5.53-4.92,2.48-4.93,5.53-4.93S3016.99,2244.82,3016.99,2247.54Z" fill="rgba(0,0,0,0)"/></g><g clip-path="url(#a)"><path d="M3020.27,2271.41c0,2.72-2.48,4.92-5.54,4.92s-5.53-2.2-5.53-4.92,2.48-4.92,5.53-4.92S3020.27,2268.69,3020.27,2271.41Z" fill="rgba(0,0,0,0)"/></g><g clip-path="url(#a)"><path d="M3023.55,2302.1c0,2.72-2.48,4.92-5.54,4.92s-5.53-2.2-5.53-4.92,2.48-4.92,5.53-4.92S3023.55,2299.38,3023.55,2302.1Z" fill="rgba(0,0,0,0)"/></g><g clip-path="url(#a)"><path d="M3026.83,2276.52c0,2.72-2.48,4.92-5.54,4.92s-5.53-2.2-5.53-4.92,2.48-4.92,5.53-4.92S3026.83,2273.8,3026.83,2276.52Z" fill="rgba(0,0,0,0)"/></g><g clip-path="url(#a)"><path d="M3030.1,2302.1c0,2.72-2.47,4.92-5.53,4.92s-5.53-2.2-5.53-4.92,2.47-4.92,5.53-4.92S3030.1,2299.38,3030.1,2302.1Z" fill="rgba(0,0,0,0)"/></g><g clip-path="url(#a)"><path d="M3033.38,2302.1c0,2.72-2.47,4.92-5.53,4.92s-5.53-2.2-5.53-4.92,2.47-4.92,5.53-4.92S3033.38,2299.38,3033.38,2302.1Z" fill="rgba(0,0,0,0)"/></g><g clip-path="url(#a)"><path d="M3036.66,2300.39c0,2.72-2.47,4.93-5.53,4.93s-5.53-2.21-5.53-4.93,2.47-4.92,5.53-4.92S3036.66,2297.68,3036.66,2300.39Z" fill="rgba(0,0,0,0)"/></g><g clip-path="url(#a)"><path d="M3039.94,2296.98c0,2.72-2.47,4.93-5.53,4.93s-5.53-2.21-5.53-4.93,2.47-4.92,5.53-4.92S3039.94,2294.24,3039.94,2296.98Z" fill="rgba(0,0,0,0)"/></g><g clip-path="url(#a)"><path d="M3043.22,2296.98c0,2.72-2.47,4.93-5.53,4.93s-5.54-2.21-5.54-4.93,2.48-4.92,5.54-4.92S3043.22,2294.24,3043.22,2296.98Z" fill="rgba(0,0,0,0)"/></g><g clip-path="url(#a)"><path d="M3046.5,2266.29c0,2.72-2.48,4.92-5.53,4.92s-5.54-2.2-5.54-4.92,2.48-4.92,5.54-4.92S3046.5,2263.57,3046.5,2266.29Z" fill="rgba(0,0,0,0)"/></g><g clip-path="url(#a)"><path d="M3049.78,2264.59c0,2.72-2.48,4.92-5.53,4.92s-5.54-2.2-5.54-4.92,2.48-4.92,5.54-4.92S3049.78,2261.87,3049.78,2264.59Z" fill="rgba(0,0,0,0)"/></g><g clip-path="url(#a)"><path d="M3053.06,2281.64c0,2.72-2.48,4.92-5.53,4.92s-5.54-2.2-5.54-4.92,2.48-4.92,5.54-4.92S3053.06,2278.92,3053.06,2281.64Z" fill="rgba(0,0,0,0)"/></g><g clip-path="url(#a)"><path d="M3056.34,2300.39c0,2.72-2.48,4.93-5.53,4.93s-5.54-2.21-5.54-4.93,2.48-4.92,5.54-4.92S3056.34,2297.68,3056.34,2300.39Z" fill="rgba(0,0,0,0)"/></g><g clip-path="url(#a)"><path d="M3059.62,2310.63c0,2.71-2.48,4.92-5.53,4.92s-5.54-2.21-5.54-4.92,2.48-4.93,5.54-4.93S3059.62,2307.91,3059.62,2310.63Z" fill="rgba(0,0,0,0)"/></g><g clip-path="url(#a)"><path d="M3062.9,2302.1c0,2.72-2.48,4.92-5.53,4.92s-5.54-2.2-5.54-4.92,2.48-4.92,5.54-4.92S3062.9,2299.38,3062.9,2302.1Z" fill="rgba(0,0,0,0)"/></g><g clip-path="url(#a)"><path d="M3066.18,2296.98c0,2.72-2.48,4.93-5.54,4.93s-5.53-2.21-5.53-4.93,2.48-4.92,5.53-4.92S3066.18,2294.24,3066.18,2296.98Z" fill="rgba(0,0,0,0)"/></g><g clip-path="url(#a)"><path d="M3069.5,2315.74c0,2.72-2.48,4.92-5.54,4.92s-5.53-2.2-5.53-4.92,2.48-4.92,5.53-4.92S3069.5,2313.02,3069.5,2315.74Z" fill="rgba(0,0,0,0)"/></g><g clip-path="url(#a)"><path d="M3072.74,2295.24c0,2.72-2.48,4.92-5.54,4.92s-5.53-2.2-5.53-4.92,2.48-4.92,5.53-4.92S3072.74,2292.56,3072.74,2295.24Z" fill="rgba(0,0,0,0)"/></g><g clip-path="url(#a)"><path d="M3076.02,2303.81c0,2.71-2.48,4.92-5.54,4.92s-5.53-2.21-5.53-4.92,2.48-4.93,5.53-4.93S3076.02,2301.09,3076.02,2303.81Z" fill="rgba(0,0,0,0)"/></g><g clip-path="url(#a)"><path d="M3079.3,2305.51c0,2.72-2.48,4.92-5.54,4.92s-5.53-2.2-5.53-4.92,2.48-4.92,5.53-4.92S3079.3,2302.79,3079.3,2305.51Z" fill="rgba(0,0,0,0)"/></g><g clip-path="url(#a)"><path d="M3082.58,2312.33c0,2.72-2.48,4.92-5.54,4.92s-5.53-2.2-5.53-4.92,2.48-4.92,5.53-4.92S3082.58,2309.61,3082.58,2312.33Z" fill="rgba(0,0,0,0)"/></g><g clip-path="url(#a)"><path d="M3085.86,2296.98c0,2.72-2.48,4.93-5.54,4.93s-5.53-2.21-5.53-4.93,2.48-4.92,5.53-4.92S3085.86,2294.24,3085.86,2296.98Z" fill="rgba(0,0,0,0)"/></g><g clip-path="url(#a)"><path d="M3089.14,2315.74c0,2.72-2.48,4.92-5.54,4.92s-5.53-2.2-5.53-4.92,2.47-4.92,5.53-4.92S3089.14,2313.02,3089.14,2315.74Z" fill="rgba(0,0,0,0)"/></g><g clip-path="url(#a)"><path d="M3092.41,2307.24c0,2.71-2.47,4.92-5.53,4.92s-5.53-2.21-5.53-4.92,2.47-4.93,5.53-4.93S3092.41,2304.5,3092.41,2307.24Z" fill="rgba(0,0,0,0)"/></g><g clip-path="url(#a)"><path d="M3095.69,2317.45c0,2.71-2.47,4.92-5.53,4.92s-5.53-2.21-5.53-4.92,2.47-4.93,5.53-4.93S3095.69,2314.73,3095.69,2317.45Z" fill="rgba(0,0,0,0)"/></g><g clip-path="url(#a)"><path d="M3098.97,2320.86c0,2.71-2.47,4.92-5.53,4.92s-5.53-2.21-5.53-4.92,2.47-4.93,5.53-4.93S3098.97,2318.14,3098.97,2320.86Z" fill="rgba(0,0,0,0)"/></g><g clip-path="url(#a)"><path d="M3102.25,2320.86c0,2.71-2.47,4.92-5.53,4.92s-5.54-2.21-5.54-4.92,2.48-4.93,5.54-4.93S3102.25,2318.14,3102.25,2320.86Z" fill="rgba(0,0,0,0)"/></g><g clip-path="url(#a)"><path d="M3105.5,2319.15c0,2.72-2.48,4.92-5.53,4.92s-5.54-2.2-5.54-4.92,2.48-4.92,5.54-4.92S3105.5,2316.43,3105.5,2319.15Z" fill="rgba(0,0,0,0)"/></g><g clip-path="url(#a)"><path d="M3108.81,2303.81c0,2.71-2.48,4.92-5.53,4.92s-5.54-2.21-5.54-4.92,2.48-4.93,5.54-4.93S3108.81,2301.09,3108.81,2303.81Z" fill="rgba(0,0,0,0)"/></g><g clip-path="url(#a)"><path d="M3112.09,2312.33c0,2.72-2.48,4.92-5.53,4.92s-5.54-2.2-5.54-4.92,2.48-4.92,5.54-4.92S3112.09,2309.61,3112.09,2312.33Z" fill="rgba(0,0,0,0)"/></g><g clip-path="url(#a)"><path d="M3115.37,2319.15c0,2.72-2.48,4.92-5.53,4.92s-5.54-2.2-5.54-4.92,2.48-4.92,5.54-4.92S3115.37,2316.43,3115.37,2319.15Z" fill="rgba(0,0,0,0)"/></g><g clip-path="url(#a)"><path d="M3118.65,2315.74c0,2.72-2.48,4.92-5.53,4.92s-5.54-2.2-5.54-4.92,2.48-4.92,5.54-4.92S3118.65,2313.02,3118.65,2315.74Z" fill="rgba(0,0,0,0)"/></g><g clip-path="url(#a)"><path d="M3121.93,2315.74c0,2.72-2.48,4.92-5.53,4.92s-5.54-2.2-5.54-4.92,2.48-4.92,5.54-4.92S3121.93,2313.02,3121.93,2315.74Z" fill="rgba(0,0,0,0)"/></g><g clip-path="url(#a)"><path d="M3125.21,2322.56c0,2.72-2.48,4.92-5.53,4.92s-5.54-2.2-5.54-4.92,2.48-4.92,5.54-4.92S3125.21,2319.84,3125.21,2322.56Z" fill="rgba(0,0,0,0)"/></g><g clip-path="url(#a)"><path d="M3128.5,2320.86c0,2.71-2.48,4.92-5.54,4.92s-5.53-2.21-5.53-4.92,2.48-4.93,5.53-4.93S3128.5,2318.14,3128.5,2320.86Z" fill="rgba(0,0,0,0)"/></g><g clip-path="url(#a)"><path d="M3131.77,2312.33c0,2.72-2.48,4.92-5.54,4.92s-5.53-2.2-5.53-4.92,2.48-4.92,5.53-4.92S3131.77,2309.61,3131.77,2312.33Z" fill="rgba(0,0,0,0)"/></g><g clip-path="url(#a)"><path d="M3135.05,2317.45c0,2.71-2.48,4.92-5.54,4.92s-5.53-2.21-5.53-4.92,2.48-4.93,5.53-4.93S3135.05,2314.73,3135.05,2317.45Z" fill="rgba(0,0,0,0)"/></g><g clip-path="url(#a)"><path d="M3138.33,2322.56c0,2.72-2.48,4.92-5.54,4.92s-5.53-2.2-5.53-4.92,2.48-4.92,5.53-4.92S3138.33,2319.84,3138.33,2322.56Z" fill="rgba(0,0,0,0)"/></g><g clip-path="url(#a)"><path d="M3141.61,2322.56c0,2.72-2.48,4.92-5.54,4.92s-5.57-2.24-5.57-4.92,2.48-4.92,5.53-4.92S3141.61,2319.84,3141.61,2322.56Z" fill="rgba(0,0,0,0)"/></g><g clip-path="url(#a)"><path d="M3144.89,2322.56c0,2.72-2.48,4.92-5.54,4.92s-5.53-2.2-5.53-4.92,2.48-4.92,5.53-4.92S3144.89,2319.84,3144.89,2322.56Z" fill="rgba(0,0,0,0)"/></g><g clip-path="url(#a)"><path d="M3148.17,2317.45c0,2.71-2.48,4.92-5.54,4.92s-5.53-2.21-5.53-4.92,2.47-4.93,5.53-4.93S3148.17,2314.73,3148.17,2317.45Z" fill="rgba(0,0,0,0)"/></g><g clip-path="url(#a)"><path d="M3151.44,2320.86c0,2.71-2.47,4.92-5.53,4.92s-5.53-2.21-5.53-4.92,2.47-4.93,5.53-4.93S3151.44,2318.14,3151.44,2320.86Z" fill="rgba(0,0,0,0)"/></g><g clip-path="url(#a)"><path d="M3154.72,2296.98c0,2.72-2.47,4.93-5.53,4.93s-5.53-2.21-5.53-4.93,2.47-4.92,5.53-4.92S3154.72,2294.24,3154.72,2296.98Z" fill="rgba(0,0,0,0)"/></g><g clip-path="url(#a)"><path d="M3158,2296.98c0,2.72-2.47,4.93-5.53,4.93s-5.53-2.21-5.53-4.93,2.47-4.92,5.53-4.92S3158,2294.24,3158,2296.98Z" fill="rgba(0,0,0,0)"/></g><g clip-path="url(#a)"><path d="M3161.28,2307.24c0,2.71-2.47,4.92-5.53,4.92s-5.53-2.21-5.53-4.92,2.47-4.93,5.53-4.93S3161.28,2304.5,3161.28,2307.24Z" fill="rgba(0,0,0,0)"/></g><g clip-path="url(#a)"><path d="M3164.56,2314.04c0,2.71-2.48,4.92-5.53,4.92s-5.53-2.21-5.53-4.92,2.48-4.93,5.54-4.93A5.245,5.245,0,0,1,3164.56,2314.04Z" fill="rgba(0,0,0,0)"/></g><g clip-path="url(#a)"><path d="M3167.84,2319.15c0,2.72-2.48,4.92-5.53,4.92s-5.54-2.2-5.54-4.92,2.48-4.92,5.54-4.92S3167.84,2316.43,3167.84,2319.15Z" fill="rgba(0,0,0,0)"/></g><g clip-path="url(#a)"><path d="M3171.12,2319.15c0,2.72-2.48,4.92-5.53,4.92s-5.54-2.2-5.54-4.92,2.45-4.91,5.54-4.91S3171.12,2316.43,3171.12,2319.15Z" fill="rgba(0,0,0,0)"/></g><g clip-path="url(#a)"><path d="M3174.4,2310.63c0,2.71-2.48,4.92-5.53,4.92s-5.54-2.21-5.54-4.92,2.48-4.93,5.54-4.93S3174.4,2307.91,3174.4,2310.63Z" fill="rgba(0,0,0,0)"/></g><g clip-path="url(#a)"><path d="M3177.68,2283.34c0,2.72-2.48,4.93-5.53,4.93s-5.54-2.21-5.54-4.93,2.48-4.92,5.54-4.92S3177.68,2280.63,3177.68,2283.34Z" fill="rgba(0,0,0,0)"/></g><g clip-path="url(#a)"><path d="M3180.96,2300.39c0,2.72-2.48,4.93-5.53,4.93s-5.54-2.21-5.54-4.93,2.48-4.92,5.54-4.92S3180.96,2297.68,3180.96,2300.39Z" fill="rgba(0,0,0,0)"/></g><g clip-path="url(#a)"><path d="M3184.24,2302.1c0,2.72-2.48,4.92-5.53,4.92s-5.54-2.2-5.54-4.92,2.48-4.92,5.54-4.92S3184.24,2299.38,3184.24,2302.1Z" fill="rgba(0,0,0,0)"/></g><g clip-path="url(#a)"><path d="M3187.5,2314.04c0,2.71-2.48,4.92-5.54,4.92a5.188,5.188,0,0,1-5.46-4.92c0-2.71,2.48-4.93,5.53-4.93A5.2,5.2,0,0,1,3187.5,2314.04Z" fill="rgba(0,0,0,0)"/></g><g clip-path="url(#a)"><path d="M3190.8,2308.92c0,2.72-2.48,4.92-5.54,4.92s-5.53-2.2-5.53-4.92,2.48-4.92,5.53-4.92S3190.8,2306.24,3190.8,2308.92Z" fill="rgba(0,0,0,0)"/></g><g clip-path="url(#a)"><path d="M3194.08,2305.51c0,2.72-2.48,4.92-5.54,4.92s-5.53-2.2-5.53-4.92,2.48-4.92,5.53-4.92S3194.08,2302.79,3194.08,2305.51Z" fill="rgba(0,0,0,0)"/></g><g clip-path="url(#a)"><path d="M3197.36,2307.24c0,2.71-2.48,4.92-5.54,4.92s-5.53-2.21-5.53-4.92,2.48-4.93,5.53-4.93S3197.36,2304.5,3197.36,2307.24Z" fill="rgba(0,0,0,0)"/></g><g clip-path="url(#a)"><path d="M3200.64,2285.05c0,2.72-2.48,4.92-5.54,4.92s-5.53-2.2-5.53-4.92,2.48-4.92,5.53-4.92S3200.64,2282.33,3200.64,2285.05Z" fill="rgba(0,0,0,0)"/></g><g clip-path="url(#a)"><path d="M3203.92,2281.64c0,2.72-2.48,4.92-5.54,4.92s-5.53-2.2-5.53-4.92,2.48-4.92,5.53-4.92S3203.92,2278.92,3203.92,2281.64Z" fill="rgba(0,0,0,0)"/></g><g clip-path="url(#a)"><path d="M3207.2,2293.57c0,2.72-2.48,4.93-5.54,4.93s-5.53-2.21-5.53-4.93,2.48-4.92,5.53-4.92S3207.2,2290.86,3207.2,2293.57Z" fill="rgba(0,0,0,0)"/></g><g clip-path="url(#a)"><path d="M3210.5,2291.87c0,2.72-2.47,4.92-5.53,4.92s-5.53-2.2-5.53-4.92,2.47-4.92,5.53-4.92S3210.5,2289.15,3210.5,2291.87Z" fill="rgba(0,0,0,0)"/></g><g clip-path="url(#a)"><path d="M3213.75,2305.51c0,2.72-2.47,4.92-5.53,4.92s-5.53-2.2-5.53-4.92,2.47-4.92,5.53-4.92S3213.75,2302.79,3213.75,2305.51Z" fill="rgba(0,0,0,0)"/></g><g clip-path="url(#a)"><path d="M3217.03,2315.74c0,2.72-2.47,4.92-5.53,4.92s-5.53-2.2-5.53-4.92,2.47-4.92,5.53-4.92S3217.03,2313.02,3217.03,2315.74Z" fill="rgba(0,0,0,0)"/></g><g clip-path="url(#a)"><path d="M3220.31,2312.33c0,2.72-2.47,4.92-5.53,4.92s-5.53-2.2-5.53-4.92,2.47-4.92,5.53-4.92S3220.31,2309.61,3220.31,2312.33Z" fill="rgba(0,0,0,0)"/></g><g clip-path="url(#a)"><path d="M3223.59,2305.51c0,2.72-2.47,4.92-5.53,4.92s-5.56-2.19-5.56-4.92,2.48-4.92,5.54-4.92S3223.59,2302.79,3223.59,2305.51Z" fill="rgba(0,0,0,0)"/></g><g clip-path="url(#a)"><path d="M3226.87,2310.63c0,2.71-2.48,4.92-5.53,4.92s-5.54-2.21-5.54-4.92,2.48-4.93,5.54-4.93S3226.87,2307.91,3226.87,2310.63Z" fill="rgba(0,0,0,0)"/></g><g clip-path="url(#a)"><path d="M3230.15,2302.1c0,2.72-2.48,4.92-5.53,4.92s-5.54-2.2-5.54-4.92,2.48-4.92,5.54-4.92S3230.15,2299.38,3230.15,2302.1Z" fill="rgba(0,0,0,0)"/></g><g clip-path="url(#a)"><path d="M3233.43,2312.33c0,2.72-2.48,4.92-5.53,4.92s-5.54-2.2-5.54-4.92,2.48-4.92,5.54-4.92S3233.43,2309.61,3233.43,2312.33Z" fill="rgba(0,0,0,0)"/></g><g clip-path="url(#a)"><path d="M3236.71,2312.33c0,2.72-2.48,4.92-5.53,4.92s-5.54-2.2-5.54-4.92,2.48-4.92,5.54-4.92S3236.71,2309.61,3236.71,2312.33Z" fill="rgba(0,0,0,0)"/></g><g clip-path="url(#a)"><path d="M3239.99,2319.15c0,2.72-2.48,4.92-5.53,4.92s-5.54-2.2-5.54-4.92,2.48-4.91,5.58-4.91S3239.99,2316.43,3239.99,2319.15Z" fill="rgba(0,0,0,0)"/></g><g clip-path="url(#a)"><path d="M3243.27,2310.63c0,2.71-2.48,4.92-5.53,4.92s-5.54-2.21-5.54-4.92,2.48-4.93,5.54-4.93S3243.27,2307.91,3243.27,2310.63Z" fill="rgba(0,0,0,0)"/></g><g clip-path="url(#a)"><path d="M3246.55,2285.05c0,2.72-2.48,4.92-5.54,4.92s-5.53-2.2-5.53-4.92,2.48-4.92,5.53-4.92S3246.55,2282.33,3246.55,2285.05Z" fill="rgba(0,0,0,0)"/></g><g clip-path="url(#a)"><path d="M3249.83,2291.87c0,2.72-2.48,4.92-5.54,4.92s-5.53-2.2-5.53-4.92,2.48-4.92,5.53-4.92S3249.83,2289.15,3249.83,2291.87Z" fill="rgba(0,0,0,0)"/></g><g clip-path="url(#a)"><path d="M3253.11,2298.69c0,2.72-2.48,4.92-5.54,4.92s-5.53-2.2-5.53-4.92,2.48-4.92,5.53-4.92S3253.11,2295.97,3253.11,2298.69Z" fill="rgba(0,0,0,0)"/></g><g clip-path="url(#a)"><path d="M3256.39,2302.1c0,2.72-2.48,4.92-5.54,4.92s-5.53-2.2-5.53-4.92,2.48-4.92,5.53-4.92S3256.39,2299.38,3256.39,2302.1Z" fill="rgba(0,0,0,0)"/></g><g clip-path="url(#a)"><path d="M3259.67,2300.39c0,2.72-2.48,4.93-5.54,4.93s-5.53-2.21-5.53-4.93,2.48-4.92,5.53-4.92S3259.67,2297.68,3259.67,2300.39Z" fill="rgba(0,0,0,0)"/></g><g clip-path="url(#a)"><path d="M3262.95,2307.24c0,2.71-2.48,4.92-5.54,4.92s-5.53-2.21-5.53-4.92,2.48-4.93,5.53-4.93S3262.95,2304.5,3262.95,2307.24Z" fill="rgba(0,0,0,0)"/></g><g clip-path="url(#a)"><path d="M3266.23,2315.74c0,2.72-2.48,4.92-5.54,4.92s-5.53-2.2-5.53-4.92,2.48-4.92,5.53-4.92S3266.23,2313.02,3266.23,2315.74Z" fill="rgba(0,0,0,0)"/></g><g clip-path="url(#a)"><path d="M3269.5,2305.51c0,2.72-2.47,4.92-5.53,4.92s-5.53-2.2-5.53-4.92,2.47-4.92,5.53-4.92S3269.5,2302.79,3269.5,2305.51Z" fill="rgba(0,0,0,0)"/></g><g clip-path="url(#a)"><path d="M3272.78,2300.39c0,2.72-2.47,4.93-5.53,4.93s-5.53-2.21-5.53-4.93,2.47-4.92,5.53-4.92S3272.78,2297.68,3272.78,2300.39Z" fill="rgba(0,0,0,0)"/></g><g clip-path="url(#a)"><path d="M3276.06,2307.24c0,2.71-2.47,4.92-5.53,4.92s-5.53-2.21-5.53-4.92,2.47-4.93,5.53-4.93S3276.06,2304.5,3276.06,2307.24Z" fill="rgba(0,0,0,0)"/></g><g clip-path="url(#a)"><path d="M3279.34,2303.81c0,2.71-2.47,4.92-5.53,4.92s-5.53-2.21-5.53-4.92,2.47-4.93,5.53-4.93S3279.34,2301.09,3279.34,2303.81Z" fill="rgba(0,0,0,0)"/></g><g clip-path="url(#a)"><path d="M3282.62,2298.69c0,2.72-2.47,4.92-5.53,4.92s-5.54-2.2-5.54-4.92,2.48-4.92,5.54-4.92S3282.62,2295.97,3282.62,2298.69Z" fill="rgba(0,0,0,0)"/></g><g clip-path="url(#a)"><path d="M3285.9,2312.33c0,2.72-2.48,4.92-5.53,4.92s-5.54-2.2-5.54-4.92,2.48-4.92,5.54-4.92S3285.9,2309.61,3285.9,2312.33Z" fill="rgba(0,0,0,0)"/></g><g clip-path="url(#a)"><path d="M3289.18,2300.39c0,2.72-2.48,4.93-5.53,4.93s-5.54-2.21-5.54-4.93,2.48-4.92,5.54-4.92S3289.18,2297.68,3289.18,2300.39Z" fill="rgba(0,0,0,0)"/></g><g clip-path="url(#a)"><path d="M3292.5,2300.39c0,2.72-2.48,4.93-5.53,4.93s-5.54-2.21-5.54-4.93,2.48-4.92,5.54-4.92S3292.5,2297.68,3292.5,2300.39Z" fill="rgba(0,0,0,0)"/></g><g clip-path="url(#a)"><path d="M3295.74,2303.81c0,2.71-2.48,4.92-5.53,4.92s-5.54-2.21-5.54-4.92,2.48-4.93,5.54-4.93S3295.74,2301.09,3295.74,2303.81Z" fill="rgba(0,0,0,0)"/></g><g clip-path="url(#a)"><path d="M3299.02,2293.57c0,2.72-2.48,4.93-5.53,4.93s-5.54-2.21-5.54-4.93,2.48-4.92,5.54-4.92S3299.02,2290.86,3299.02,2293.57Z" fill="rgba(0,0,0,0)"/></g><g clip-path="url(#a)"><path d="M3302.3,2302.1c0,2.72-2.48,4.92-5.53,4.92s-5.54-2.2-5.54-4.92,2.48-4.92,5.54-4.92S3302.3,2299.38,3302.3,2302.1Z" fill="rgba(0,0,0,0)"/></g><g clip-path="url(#a)"><path d="M3305.58,2286.75c0,2.72-2.48,4.93-5.54,4.93s-5.53-2.21-5.53-4.93,2.48-4.92,5.53-4.92S3305.58,2284.04,3305.58,2286.75Z" fill="rgba(0,0,0,0)"/></g><g clip-path="url(#a)"><path d="M3308.86,2307.24c0,2.71-2.48,4.92-5.54,4.92s-5.53-2.21-5.53-4.92,2.48-4.93,5.53-4.93S3308.86,2304.5,3308.86,2307.24Z" fill="rgba(0,0,0,0)"/></g><g clip-path="url(#a)"><path d="M3312.14,2245.83c0,2.72-2.48,4.92-5.54,4.92s-5.53-2.2-5.53-4.92,2.48-4.92,5.53-4.92S3312.14,2243.11,3312.14,2245.83Z" fill="rgba(0,0,0,0)"/></g><g clip-path="url(#a)"><path d="M3315.42,2276.52c0,2.72-2.48,4.92-5.54,4.92s-5.53-2.2-5.53-4.92,2.48-4.92,5.53-4.92S3315.42,2273.8,3315.42,2276.52Z" fill="rgba(0,0,0,0)"/></g><g clip-path="url(#a)"><path d="M3318.7,2290.16c0,2.72-2.48,4.93-5.54,4.93s-5.53-2.21-5.53-4.93,2.48-4.92,5.53-4.92S3318.7,2287.45,3318.7,2290.16Z" fill="rgba(0,0,0,0)"/></g><g clip-path="url(#a)"><path d="M3321.98,2288.46c0,2.72-2.48,4.92-5.54,4.92s-5.53-2.2-5.53-4.92,2.48-4.92,5.53-4.92S3321.98,2285.74,3321.98,2288.46Z" fill="rgba(0,0,0,0)"/></g><g clip-path="url(#a)"><path d="M3325.26,2310.63c0,2.71-2.48,4.92-5.54,4.92s-5.53-2.21-5.53-4.92,2.48-4.93,5.53-4.93S3325.26,2307.91,3325.26,2310.63Z" fill="rgba(0,0,0,0)"/></g><g clip-path="url(#a)"><path d="M3328.5,2324.24c0,2.71-2.48,4.92-5.54,4.92a5.168,5.168,0,0,1-5.46-4.92c0-2.74,2.47-4.93,5.53-4.93A5.218,5.218,0,0,1,3328.5,2324.24Z" fill="rgba(0,0,0,0)"/></g><g clip-path="url(#a)"><path d="M3331.81,2296.98c0,2.72-2.47,4.93-5.53,4.93s-5.53-2.21-5.53-4.93,2.47-4.92,5.53-4.92S3331.81,2294.24,3331.81,2296.98Z" fill="rgba(0,0,0,0)"/></g><g clip-path="url(#a)"><path d="M3335.09,2308.92c0,2.72-2.47,4.92-5.53,4.92s-5.53-2.2-5.53-4.92,2.47-4.92,5.53-4.92S3335.09,2306.24,3335.09,2308.92Z" fill="rgba(0,0,0,0)"/></g><g clip-path="url(#a)"><path d="M3338.37,2305.51c0,2.72-2.47,4.92-5.53,4.92s-5.53-2.2-5.53-4.92,2.47-4.92,5.53-4.92S3338.37,2302.79,3338.37,2305.51Z" fill="rgba(0,0,0,0)"/></g><g clip-path="url(#a)"><path d="M3341.65,2320.86c0,2.71-2.47,4.92-5.53,4.92s-5.54-2.21-5.54-4.92,2.48-4.93,5.54-4.93S3341.65,2318.14,3341.65,2320.86Z" fill="rgba(0,0,0,0)"/></g><g clip-path="url(#a)"><path d="M3344.93,2308.92c0,2.72-2.48,4.92-5.53,4.92s-5.54-2.2-5.54-4.92,2.48-4.92,5.54-4.92S3344.93,2306.24,3344.93,2308.92Z" fill="rgba(0,0,0,0)"/></g><g clip-path="url(#a)"><path d="M3348.21,2307.24c0,2.71-2.48,4.92-5.53,4.92s-5.54-2.21-5.54-4.92,2.48-4.93,5.54-4.93S3348.21,2304.5,3348.21,2307.24Z" fill="rgba(0,0,0,0)"/></g><g clip-path="url(#a)"><path d="M3351.5,2285.05c0,2.72-2.48,4.92-5.53,4.92s-5.54-2.2-5.54-4.92,2.48-4.92,5.54-4.92S3351.5,2282.33,3351.5,2285.05Z" fill="rgba(0,0,0,0)"/></g><g clip-path="url(#a)"><path d="M3354.77,2235.6c0,2.72-2.48,4.92-5.53,4.92s-5.54-2.2-5.54-4.92,2.48-4.92,5.54-4.92S3354.77,2232.88,3354.77,2235.6Z" fill="rgba(0,0,0,0)"/></g><g clip-path="url(#a)"><path d="M3358.05,2262.88c0,2.72-2.48,4.92-5.53,4.92s-5.54-2.2-5.54-4.92,2.48-4.92,5.54-4.92S3358.05,2260.16,3358.05,2262.88Z" fill="rgba(0,0,0,0)"/></g><g clip-path="url(#a)"><path d="M3361.33,2206.61c0,2.72-2.48,4.92-5.53,4.92s-5.54-2.2-5.54-4.92,2.48-4.92,5.54-4.92S3361.33,2203.89,3361.33,2206.61Z" fill="rgba(0,0,0,0)"/></g><g clip-path="url(#a)"><path d="M3364.61,2273.11c0,2.72-2.48,4.92-5.53,4.92s-5.54-2.2-5.54-4.92,2.48-4.92,5.54-4.92S3364.61,2270.39,3364.61,2273.11Z" fill="rgba(0,0,0,0)"/></g><g clip-path="url(#a)"><path d="M3367.89,2278.24c0,2.72-2.48,4.92-5.54,4.92s-5.53-2.2-5.53-4.92,2.48-4.92,5.53-4.92S3367.89,2275.51,3367.89,2278.24Z" fill="rgba(0,0,0,0)"/></g><g clip-path="url(#a)"><path d="M3371.17,2279.93c0,2.72-2.48,4.93-5.54,4.93s-5.53-2.21-5.53-4.93,2.48-4.92,5.53-4.92S3371.17,2277.24,3371.17,2279.93Z" fill="rgba(0,0,0,0)"/></g><g clip-path="url(#a)"><path d="M3374.5,2290.16c0,2.72-2.48,4.93-5.54,4.93s-5.53-2.21-5.53-4.93,2.48-4.92,5.53-4.92S3374.5,2287.45,3374.5,2290.16Z" fill="rgba(0,0,0,0)"/></g><g clip-path="url(#a)"><path d="M3377.73,2308.92c0,2.72-2.48,4.92-5.54,4.92s-5.53-2.2-5.53-4.92,2.48-4.92,5.53-4.92S3377.73,2306.24,3377.73,2308.92Z" fill="rgba(0,0,0,0)"/></g><g clip-path="url(#a)"><path d="M3381.01,2257.77c0,2.71-2.48,4.92-5.54,4.92s-5.53-2.21-5.53-4.92,2.48-4.93,5.53-4.93S3381.01,2255.05,3381.01,2257.77Z" fill="rgba(0,0,0,0)"/></g><g clip-path="url(#a)"><path d="M3384.29,2293.57c0,2.72-2.48,4.93-5.54,4.93s-5.53-2.21-5.53-4.93,2.48-4.92,5.53-4.92S3384.29,2290.86,3384.29,2293.57Z" fill="rgba(0,0,0,0)"/></g><g clip-path="url(#a)"><path d="M3387.57,2308.92c0,2.72-2.48,4.92-5.54,4.92s-5.53-2.2-5.53-4.92,2.47-4.92,5.53-4.92S3387.57,2306.24,3387.57,2308.92Z" fill="rgba(0,0,0,0)"/></g><g clip-path="url(#a)"><path d="M3390.84,2295.24c0,2.72-2.47,4.92-5.53,4.92s-5.53-2.2-5.53-4.92,2.47-4.92,5.53-4.92S3390.84,2292.56,3390.84,2295.24Z" fill="rgba(0,0,0,0)"/></g><g clip-path="url(#a)"><path d="M3394.12,2305.51c0,2.72-2.47,4.92-5.53,4.92s-5.53-2.2-5.53-4.92,2.47-4.92,5.53-4.92S3394.12,2302.79,3394.12,2305.51Z" fill="rgba(0,0,0,0)"/></g><g clip-path="url(#a)"><path d="M3397.4,2295.24c0,2.72-2.47,4.92-5.53,4.92s-5.53-2.2-5.53-4.92,2.47-4.92,5.53-4.92S3397.4,2292.56,3397.4,2295.24Z" fill="rgba(0,0,0,0)"/></g><g clip-path="url(#a)"><path d="M3400.68,2305.51c0,2.72-2.47,4.92-5.53,4.92s-5.53-2.2-5.53-4.92,2.47-4.92,5.53-4.92S3400.68,2302.79,3400.68,2305.51Z" fill="rgba(0,0,0,0)"/></g><g clip-path="url(#a)"><path d="M3403.96,2291.87c0,2.72-2.48,4.92-5.53,4.92s-5.54-2.2-5.54-4.92,2.48-4.92,5.54-4.92S3403.96,2289.15,3403.96,2291.87Z" fill="rgba(0,0,0,0)"/></g><g clip-path="url(#a)"><path d="M3407.24,2285.05c0,2.72-2.48,4.92-5.53,4.92s-5.54-2.2-5.54-4.92,2.48-4.92,5.54-4.92S3407.24,2282.33,3407.24,2285.05Z" fill="rgba(0,0,0,0)"/></g><g clip-path="url(#a)"><path d="M3410.5,2302.1c0,2.72-2.48,4.92-5.53,4.92s-5.54-2.2-5.54-4.92,2.48-4.92,5.54-4.92S3410.5,2299.38,3410.5,2302.1Z" fill="rgba(0,0,0,0)"/></g><g clip-path="url(#a)"><path d="M3413.8,2281.64c0,2.72-2.48,4.92-5.53,4.92s-5.54-2.2-5.54-4.92,2.48-4.92,5.54-4.92S3413.8,2278.92,3413.8,2281.64Z" fill="rgba(0,0,0,0)"/></g><g clip-path="url(#a)"><path d="M3417.08,2283.34c0,2.72-2.48,4.93-5.53,4.93s-5.54-2.21-5.54-4.93,2.48-4.92,5.54-4.92S3417.08,2280.63,3417.08,2283.34Z" fill="rgba(0,0,0,0)"/></g><g clip-path="url(#a)"><path d="M3420.36,2302.1c0,2.72-2.48,4.92-5.53,4.92s-5.54-2.2-5.54-4.92,2.48-4.92,5.54-4.92S3420.36,2299.38,3420.36,2302.1Z" fill="rgba(0,0,0,0)"/></g><g clip-path="url(#a)"><path d="M3423.64,2160.57c0,2.72-2.48,4.93-5.53,4.93s-5.54-2.21-5.54-4.93,2.48-4.92,5.54-4.92S3423.64,2157.86,3423.64,2160.57Z" fill="rgba(0,0,0,0)"/></g><g clip-path="url(#a)"><path d="M3426.92,2211.73c0,2.72-2.48,4.92-5.54,4.92s-5.53-2.2-5.53-4.92,2.48-4.92,5.53-4.92S3426.92,2209.01,3426.92,2211.73Z" fill="rgba(0,0,0,0)"/></g><g clip-path="url(#a)"><path d="M3430.2,2215.14c0,2.72-2.48,4.92-5.54,4.92s-5.53-2.2-5.53-4.92,2.48-4.92,5.53-4.92S3430.2,2212.42,3430.2,2215.14Z" fill="rgba(0,0,0,0)"/></g><g clip-path="url(#a)"><path d="M3433.5,2239.01c0,2.72-2.48,4.92-5.54,4.92s-5.53-2.2-5.53-4.92,2.48-4.92,5.53-4.92S3433.5,2236.29,3433.5,2239.01Z" fill="rgba(0,0,0,0)"/></g><g clip-path="url(#a)"><path d="M3436.76,2266.29c0,2.72-2.48,4.92-5.54,4.92s-5.53-2.2-5.53-4.92,2.48-4.92,5.53-4.92S3436.76,2263.57,3436.76,2266.29Z" fill="rgba(0,0,0,0)"/></g><g clip-path="url(#a)"><path d="M3440.04,2042.92c0,2.72-2.48,4.92-5.54,4.92s-5.53-2.2-5.53-4.92,2.48-4.92,5.53-4.92S3440.04,2040.24,3440.04,2042.92Z" fill="rgba(0,0,0,0)"/></g><g clip-path="url(#a)"><path d="M3443.32,2065.09c0,2.71-2.48,4.92-5.54,4.92s-5.53-2.21-5.53-4.92,2.48-4.93,5.53-4.93S3443.32,2062.37,3443.32,2065.09Z" fill="rgba(0,0,0,0)"/></g><g clip-path="url(#a)"><path d="M3446.6,2186.15c0,2.72-2.48,4.92-5.54,4.92s-5.53-2.2-5.53-4.92,2.48-4.92,5.53-4.92S3446.6,2183.43,3446.6,2186.15Z" fill="rgba(0,0,0,0)"/></g><g clip-path="url(#a)"><path d="M3449.87,2192.97c0,2.72-2.47,4.92-5.53,4.92s-5.53-2.2-5.53-4.92,2.47-4.92,5.53-4.92S3449.87,2190.24,3449.87,2192.97Z" fill="rgba(0,0,0,0)"/></g><g clip-path="url(#a)"><path d="M3453.15,2163.98c0,2.72-2.47,4.93-5.53,4.93s-5.53-2.21-5.53-4.93,2.47-4.92,5.53-4.92S3453.15,2161.24,3453.15,2163.98Z" fill="rgba(0,0,0,0)"/></g><g clip-path="url(#a)"><path d="M3456.43,2189.56c0,2.72-2.47,4.92-5.53,4.92s-5.53-2.2-5.53-4.92,2.47-4.92,5.53-4.92S3456.43,2186.84,3456.43,2189.56Z" fill="rgba(0,0,0,0)"/></g><g clip-path="url(#a)"><path d="M3459.71,2223.66c0,2.72-2.47,4.93-5.53,4.93s-5.53-2.21-5.53-4.93,2.47-4.92,5.53-4.92S3459.71,2220.95,3459.71,2223.66Z" fill="rgba(0,0,0,0)"/></g><g clip-path="url(#a)"><path d="M3462.99,2271.41c0,2.72-2.48,4.92-5.53,4.92s-5.54-2.2-5.54-4.92,2.48-4.92,5.54-4.92S3462.99,2268.69,3462.99,2271.41Z" fill="rgba(0,0,0,0)"/></g><g clip-path="url(#a)"><path d="M3466.27,2290.16c0,2.72-2.48,4.93-5.53,4.93s-5.54-2.21-5.54-4.93,2.48-4.92,5.54-4.92S3466.27,2287.45,3466.27,2290.16Z" fill="rgba(0,0,0,0)"/></g><g clip-path="url(#a)"><path d="M3469.55,2302.1c0,2.72-2.48,4.92-5.53,4.92s-5.54-2.2-5.54-4.92,2.48-4.92,5.54-4.92S3469.55,2299.38,3469.55,2302.1Z" fill="rgba(0,0,0,0)"/></g><g clip-path="url(#a)"><path d="M3472.83,2288.46c0,2.72-2.48,4.92-5.53,4.92s-5.54-2.2-5.54-4.92,2.48-4.92,5.54-4.92S3472.83,2285.74,3472.83,2288.46Z" fill="rgba(0,0,0,0)"/></g><g clip-path="url(#a)"><path d="M3476.11,2293.57c0,2.72-2.48,4.93-5.53,4.93s-5.54-2.21-5.54-4.93,2.48-4.92,5.54-4.92S3476.11,2290.86,3476.11,2293.57Z" fill="rgba(0,0,0,0)"/></g><g clip-path="url(#a)"><path d="M3479.39,2278.24c0,2.72-2.48,4.92-5.53,4.92s-5.54-2.2-5.54-4.92,2.48-4.92,5.54-4.92S3479.39,2275.51,3479.39,2278.24Z" fill="rgba(0,0,0,0)"/></g><g clip-path="url(#a)"><path d="M3482.67,2278.24c0,2.72-2.48,4.92-5.53,4.92s-5.54-2.2-5.54-4.92,2.48-4.92,5.54-4.92S3482.67,2275.51,3482.67,2278.24Z" fill="rgba(0,0,0,0)"/></g><g clip-path="url(#a)"><path d="M3485.95,2288.46c0,2.72-2.48,4.92-5.54,4.92s-5.53-2.2-5.53-4.92,2.48-4.92,5.53-4.92S3485.95,2285.74,3485.95,2288.46Z" fill="rgba(0,0,0,0)"/></g><g clip-path="url(#a)"><path d="M3489.23,2278.24c0,2.72-2.48,4.92-5.54,4.92s-5.53-2.2-5.53-4.92,2.48-4.92,5.53-4.92S3489.23,2275.51,3489.23,2278.24Z" fill="rgba(0,0,0,0)"/></g><g clip-path="url(#a)"><path d="M3492.5,2303.81c0,2.71-2.48,4.92-5.54,4.92s-5.53-2.21-5.53-4.92,2.48-4.93,5.53-4.93S3492.5,2301.09,3492.5,2303.81Z" fill="rgba(0,0,0,0)"/></g><g clip-path="url(#a)"><path d="M3495.79,2312.33c0,2.72-2.48,4.92-5.54,4.92s-5.53-2.2-5.53-4.92,2.48-4.92,5.53-4.92S3495.79,2309.61,3495.79,2312.33Z" fill="rgba(0,0,0,0)"/></g><g clip-path="url(#a)"><path d="M3499.07,2281.64c0,2.72-2.48,4.92-5.54,4.92s-5.53-2.2-5.53-4.92,2.48-4.92,5.53-4.92S3499.07,2278.92,3499.07,2281.64Z" fill="rgba(0,0,0,0)"/></g><g clip-path="url(#a)"><path d="M3502.35,2302.1c0,2.72-2.48,4.92-5.54,4.92s-5.53-2.2-5.53-4.92,2.48-4.92,5.53-4.92S3502.35,2299.38,3502.35,2302.1Z" fill="rgba(0,0,0,0)"/></g><g clip-path="url(#a)"><path d="M3505.63,2274.82c0,2.72-2.48,4.92-5.54,4.92s-5.53-2.2-5.53-4.92,2.48-4.92,5.53-4.92S3505.63,2272.1,3505.63,2274.82Z" fill="rgba(0,0,0,0)"/></g><g clip-path="url(#a)"><path d="M3508.9,2285.05c0,2.72-2.47,4.92-5.53,4.92s-5.53-2.2-5.53-4.92,2.47-4.92,5.53-4.92S3508.9,2282.33,3508.9,2285.05Z" fill="rgba(0,0,0,0)"/></g><g clip-path="url(#a)"><path d="M3512.18,2283.34c0,2.72-2.47,4.93-5.53,4.93s-5.53-2.21-5.53-4.93,2.47-4.92,5.53-4.92S3512.18,2280.63,3512.18,2283.34Z" fill="rgba(0,0,0,0)"/></g><g clip-path="url(#a)"><path d="M3515.5,2312.33c0,2.72-2.47,4.92-5.53,4.92s-5.53-2.2-5.53-4.92,2.47-4.92,5.53-4.92S3515.5,2309.61,3515.5,2312.33Z" fill="rgba(0,0,0,0)"/></g><g clip-path="url(#a)"><path d="M3518.74,2300.39c0,2.72-2.47,4.93-5.53,4.93s-5.53-2.21-5.53-4.93,2.47-4.92,5.53-4.92S3518.74,2297.68,3518.74,2300.39Z" fill="rgba(0,0,0,0)"/></g><g clip-path="url(#a)"><path d="M3522.02,2286.75c0,2.72-2.47,4.93-5.53,4.93s-5.54-2.21-5.54-4.93,2.48-4.92,5.54-4.92S3522.02,2284.04,3522.02,2286.75Z" fill="rgba(0,0,0,0)"/></g><g clip-path="url(#a)"><path d="M3525.3,2295.24c0,2.72-2.48,4.92-5.53,4.92s-5.54-2.2-5.54-4.92,2.48-4.92,5.54-4.92S3525.3,2292.56,3525.3,2295.24Z" fill="rgba(0,0,0,0)"/></g><g clip-path="url(#a)"><path d="M3528.58,2303.81c0,2.71-2.48,4.92-5.53,4.92s-5.54-2.21-5.54-4.92,2.48-4.93,5.54-4.93S3528.58,2301.09,3528.58,2303.81Z" fill="rgba(0,0,0,0)"/></g><g clip-path="url(#a)"><path d="M3531.86,2310.63c0,2.71-2.48,4.92-5.53,4.92s-5.54-2.21-5.54-4.92,2.48-4.93,5.54-4.93S3531.86,2307.91,3531.86,2310.63Z" fill="rgba(0,0,0,0)"/></g><g clip-path="url(#a)"><path d="M3535.14,2291.87c0,2.72-2.48,4.92-5.53,4.92s-5.54-2.2-5.54-4.92,2.48-4.92,5.54-4.92S3535.14,2289.15,3535.14,2291.87Z" fill="rgba(0,0,0,0)"/></g><g clip-path="url(#a)"><path d="M3538.42,2315.74c0,2.72-2.48,4.92-5.53,4.92s-5.54-2.2-5.54-4.92,2.48-4.92,5.54-4.92S3538.42,2313.02,3538.42,2315.74Z" fill="rgba(0,0,0,0)"/></g><g clip-path="url(#a)"><path d="M3541.7,2302.1c0,2.72-2.48,4.92-5.53,4.92s-5.54-2.2-5.54-4.92,2.48-4.92,5.54-4.92S3541.7,2299.38,3541.7,2302.1Z" fill="rgba(0,0,0,0)"/></g><g clip-path="url(#a)"><path d="M3544.98,2286.75c0,2.72-2.48,4.93-5.54,4.93s-5.53-2.21-5.53-4.93,2.48-4.92,5.53-4.92S3544.98,2284.04,3544.98,2286.75Z" fill="rgba(0,0,0,0)"/></g><g clip-path="url(#a)"><path d="M3548.26,2254.36c0,2.71-2.48,4.92-5.54,4.92s-5.53-2.21-5.53-4.92,2.48-4.93,5.53-4.93S3548.26,2251.64,3548.26,2254.36Z" fill="rgba(0,0,0,0)"/></g><g clip-path="url(#a)"><path d="M3551.5,2254.36c0,2.71-2.48,4.92-5.54,4.92s-5.53-2.21-5.53-4.92,2.48-4.93,5.53-4.93S3551.5,2251.64,3551.5,2254.36Z" fill="rgba(0,0,0,0)"/></g><g clip-path="url(#a)"><path d="M3554.82,2261.18c0,2.71-2.48,4.92-5.54,4.92s-5.53-2.21-5.53-4.92,2.48-4.93,5.53-4.93S3554.82,2258.46,3554.82,2261.18Z" fill="rgba(0,0,0,0)"/></g><g clip-path="url(#a)"><path d="M3558.1,2245.83c0,2.72-2.48,4.92-5.54,4.92s-5.53-2.2-5.53-4.92,2.48-4.92,5.53-4.92S3558.1,2243.11,3558.1,2245.83Z" fill="rgba(0,0,0,0)"/></g><g clip-path="url(#a)"><path d="M3561.38,2293.57c0,2.72-2.48,4.93-5.54,4.93s-5.53-2.21-5.53-4.93,2.48-4.92,5.53-4.92S3561.38,2290.86,3561.38,2293.57Z" fill="rgba(0,0,0,0)"/></g><g clip-path="url(#a)"><path d="M3564.66,2295.24c0,2.72-2.48,4.92-5.54,4.92s-5.53-2.2-5.53-4.92,2.48-4.92,5.53-4.92S3564.66,2292.56,3564.66,2295.24Z" fill="rgba(0,0,0,0)"/></g><g clip-path="url(#a)"><path d="M3567.94,2264.59c0,2.72-2.48,4.92-5.54,4.92s-5.53-2.2-5.53-4.92,2.47-4.92,5.53-4.92S3567.94,2261.87,3567.94,2264.59Z" fill="rgba(0,0,0,0)"/></g><g clip-path="url(#a)"><path d="M3571.21,2225.37c0,2.72-2.47,4.92-5.53,4.92s-5.53-2.2-5.53-4.92,2.47-4.92,5.53-4.92S3571.21,2222.65,3571.21,2225.37Z" fill="rgba(0,0,0,0)"/></g><g clip-path="url(#a)"><path d="M3574.5,2291.87c0,2.72-2.47,4.92-5.53,4.92s-5.53-2.2-5.53-4.92,2.47-4.92,5.53-4.92S3574.5,2289.15,3574.5,2291.87Z" fill="rgba(0,0,0,0)"/></g><g clip-path="url(#a)"><path d="M3577.77,2261.18c0,2.71-2.47,4.92-5.53,4.92s-5.53-2.21-5.53-4.92,2.47-4.93,5.53-4.93S3577.77,2258.46,3577.77,2261.18Z" fill="rgba(0,0,0,0)"/></g><g clip-path="url(#a)"><path d="M3581.05,2274.82c0,2.72-2.47,4.92-5.53,4.92s-5.54-2.2-5.54-4.92,2.48-4.92,5.54-4.92S3581.05,2272.1,3581.05,2274.82Z" fill="rgba(0,0,0,0)"/></g><g clip-path="url(#a)"><path d="M3584.33,2087.24c0,2.72-2.48,4.92-5.53,4.92s-5.54-2.2-5.54-4.92,2.48-4.92,5.54-4.92S3584.33,2084.53,3584.33,2087.24Z" fill="rgba(0,0,0,0)"/></g><g clip-path="url(#a)"><path d="M3587.61,2252.65c0,2.72-2.48,4.92-5.53,4.92s-5.54-2.2-5.54-4.92,2.48-4.92,5.54-4.92S3587.61,2249.93,3587.61,2252.65Z" fill="rgba(0,0,0,0)"/></g><g clip-path="url(#a)"><path d="M3590.89,2262.88c0,2.72-2.48,4.92-5.53,4.92s-5.54-2.2-5.54-4.92,2.48-4.92,5.54-4.92S3590.89,2260.16,3590.89,2262.88Z" fill="rgba(0,0,0,0)"/></g><g clip-path="url(#a)"><path d="M3594.17,2291.87c0,2.72-2.48,4.92-5.53,4.92s-5.54-2.2-5.54-4.92,2.48-4.92,5.54-4.92S3594.17,2289.15,3594.17,2291.87Z" fill="rgba(0,0,0,0)"/></g><g clip-path="url(#a)"><path d="M3597.5,2268c0,2.72-2.48,4.92-5.53,4.92s-5.54-2.2-5.54-4.92,2.48-4.92,5.54-4.92S3597.5,2265.24,3597.5,2268Z" fill="rgba(0,0,0,0)"/></g><g clip-path="url(#a)"><path d="M3600.73,2283.34c0,2.72-2.48,4.93-5.53,4.93s-5.54-2.21-5.54-4.93,2.48-4.92,5.54-4.92S3600.73,2280.63,3600.73,2283.34Z" fill="rgba(0,0,0,0)"/></g><g clip-path="url(#a)"><path d="M3604.01,2285.05c0,2.72-2.48,4.92-5.53,4.92s-5.54-2.2-5.54-4.92,2.48-4.92,5.54-4.92S3604.01,2282.33,3604.01,2285.05Z" fill="rgba(0,0,0,0)"/></g><g clip-path="url(#a)"><path d="M3607.29,2295.24c0,2.72-2.48,4.92-5.54,4.92s-5.53-2.2-5.53-4.92,2.48-4.92,5.53-4.92S3607.29,2292.56,3607.29,2295.24Z" fill="rgba(0,0,0,0)"/></g></g></svg>