<svg xmlns="http://www.w3.org/2000/svg" width="700.25" height="225.66" viewBox="0 0 700.25 225.66"><title>title-1</title><g id="圖層_2" data-name="圖層 2"><g id="圖層_1-2" data-name="圖層 1"><path d="M36.78,82.58C26.1,82.82,18,83.06,9,84V39.63c9.73,1.19,19.22,1.66,33.69,1.66H95.15V26.82A104,104,0,0,0,93.49,7.36H141a101.65,101.65,0,0,0-1.66,18.75V41.29h55.05a302.82,302.82,0,0,0,33.93-1.66V84a324,324,0,0,0-32.51-1.43h-116v90.17c0,5.46,2.85,9,8.3,10.21s21.36,1.89,42.24,1.89c34.88,0,60-1.42,86.38-4.74l.23,43.42c-33.93,1.66-59.08,2.14-93.25,2.14-54.58,0-71.19-3.09-80.68-15.42-5.22-6.89-6.17-12.82-6.17-36.31Z" transform="translate(-9.02 -4.75)" style="fill:#fff"/><path d="M246.31,229.7c.95-7.83,1.43-18.27,1.43-34.4V35.84a250.22,250.22,0,0,0-1.19-27.53A241.61,241.61,0,0,0,274.31,9.5H436.86a244.17,244.17,0,0,0,27.76-1.19,242.53,242.53,0,0,0-1.19,27.53V195.3c0,13.52.48,26.57,1.43,34.4h-45.8v-9H291.87v9Zm105.6-41.52a104,104,0,0,0-11.39-13.05c-11.39,2.61-23.49,5-34.65,6.88a100.86,100.86,0,0,0-10.44,2.13l-5.69-34.4c4.51.23,4.51.23,5,.23,2.85,0,13.29-.71,23-1.42a380.37,380.37,0,0,0,39.15-5.22v9.25c2.61-1.89,4.75-3.56,6.64-5.22-6.17-20.17-9.49-38-12.1-65.73H313.94a140.14,140.14,0,0,0-20.64,1.19v-32c5.22,1,11.15,1.42,20.4,1.42H350a8.89,8.89,0,0,1-.24-2.85,29.82,29.82,0,0,0-.24-4.74h-61V188.18Zm-55.53-84.72c0-5.93-.24-12.1-.71-16.84,5.69.47,8.54.47,13.29.47h29c6.17,0,9.73-.24,13.76-.47-.24,2.61-.48,7.59-.48,15.18v25.39c0,12.34,0,13.77.24,17.09-2.61-.24-4.27-.24-10.2-.24H308.72c-7.83,0-10.2,0-13.05.48.47-5.46.71-10.21.71-18.75Zm24.68,16.14h7.12v-9.49h-7.12Zm69.52,68.58q-6.75-2.15-13.52-12.1a112.65,112.65,0,0,1-15.42,12.1ZM383.23,44.62c-.24,3.79-.24,4.74-.24,7.59h9.49c-1.18-3.08-2.37-5.93-3.08-7.59Zm40.1,0H411c1.43,3.56,2.14,5,2.85,7.12,1.42-.24,2.13-.24,4.27-.48V82.58a181.65,181.65,0,0,0-21.83-1H383.94a192.93,192.93,0,0,0,3.8,31.8,99.11,99.11,0,0,0,8.07-28H396l26.82,14.71c-1.43,4.75-4.51,13.29-8.31,22.55a148.4,148.4,0,0,1-15.66,28.94c3.08,6.41,3.8,7.6,5,7.6,1.66,0,3.56-8.31,5-21.6,5.22,7.36,9.72,12.11,14.47,15.67Zm0,143.56V165.63c-3.8,11.87-9.25,19.46-16.13,22.55Z" transform="translate(-9.02 -4.75)" style="fill:#fff"/><path d="M536.05,174.89c-6.41,23.25-12.81,37.25-24.2,52.2l-33.46-24.91c10.44-10.92,16.61-23.26,22.3-43.9a188.5,188.5,0,0,0-22.54-18.75c13.53-19,18.27-43.9,18.27-93.25,0-10.68-.23-18.51-.95-26.1,9.73.71,19.7.95,29.43.95h75.46c-.48-8.31-.48-10.68-1.19-14.72h42.71a60.14,60.14,0,0,0-.71,8.78c0,.48.24,3.8.47,5.94h10.21c-4-7.36-4-7.36-5-9.26L682,4.75c3.56,5.7,5.46,9.26,9,15.9,5.22-.24,6.41-.47,10.68-.95V58.14c-10.44-1-20.65-1.42-33-1.42H643.78a165.43,165.43,0,0,0,4,20.88c4.75-8.07,6.65-11.86,9.26-19.46l35.59,15.19c-2.85,4.51-4.27,7.12-7.12,12.34-3.08,5.46-11.62,18.27-19,28.24a42.23,42.23,0,0,0,7.83,7.35c3.08-6.64,5-12.57,6.88-23.25a181.19,181.19,0,0,0,28,19.22c-5.69,26.57-13.52,40.34-25.86,45.32,11.39,17.8,17.32,28.24,25.15,45.56l-38,19.69c-5.46-15-8.06-21.11-14.23-33.45-2.38,16.84-6.17,25.62-14,30.61-6.65,4-17.56,5.45-43,5.45-30.61,0-40.82-.71-49.12-3.08-10.68-3.32-14.24-9-14.24-24.44Zm61.22,13.29c-4.51-10.68-8.54-17.8-17.08-29l15.66-7.36H547.2a114.52,114.52,0,0,0-13.52.71c.47-3.56.47-7.12.47-17.56V110.35c0-2.85,0-5.7-.24-12.34-3.08,26.34-6.88,41.76-14.71,59.56l16.61,7.12a45.32,45.32,0,0,0-.95-7.36h42.72a46.78,46.78,0,0,0-1,10v21.83c0,4,2.61,4.74,17.56,4.74,14,0,20.4-1.18,22.06-4.27.72-1.66,1.19-5.69,1.19-11.39ZM608,122c4.74-4,7.12-5.93,11.86-10.44A189.37,189.37,0,0,1,611.51,89H534.86c-.23,1.9-.23,2.61-.47,4.75a100.87,100.87,0,0,0,13.05.71h47.22a107.84,107.84,0,0,0,13.76-.71c-.23,4-.47,10.2-.47,16.37ZM605.1,62.41c-.47-2.61-.47-3.32-1-5.69H536.52l-.23,5.69ZM566,126.72h10v-8.07H566Zm54.81,49.83c8.54,3.8,18.51,6.88,31.32,9.49-3.55-6.64-5.45-10-11.39-19.46L658,159.23c-7.83-5-11.63-8.31-18-15.43a177.17,177.17,0,0,1-15.9,14.48c3.8,4.74,5,6.41,9,12.1Z" transform="translate(-9.02 -4.75)" style="fill:#fff"/></g></g></svg>