<svg xmlns="http://www.w3.org/2000/svg" width="694.32" height="228.75" viewBox="0 0 694.32 228.75"><title>title-2</title><g id="圖層_2" data-name="圖層 2"><g id="圖層_1-2" data-name="圖層 1"><path d="M156.61,96.82c11.39,22.54,16.61,34.88,25.15,58.85l-41.52,16.61c-6.65-25.63-12.1-41.05-19.46-56l-3.08,2.85a90.41,90.41,0,0,0-9.26-12.82v88.27c0,7.83.24,14,.71,21.6H69.05V203.6H54.58v21.12H12.34c.95-7.59,1.42-18.27,1.42-33.7V62.89c0-15.66-.23-19.22-.95-26.58C19,37,21.59,37,33,37H38.2A170.12,170.12,0,0,0,48.41,4.52l44.13,5a51.65,51.65,0,0,0-2.84,6.4c-3.8,9.5-6.17,15-9.26,21.12H89.7c8.06,0,13-.23,19.45-.71-.47,10-.71,14.71-.71,19.7V65.5c12.34-17.32,22.78-42.71,25.15-60.27l43.66,5.93c-1.89,4.27-3.08,7.59-5.93,17.08a51.62,51.62,0,0,1-1.9,5.7h39.63c10.21,0,14.24-.24,19.46-.95-.95,9-.95,9-1.42,43.9-.72,76.17-3.56,111.76-10.44,131.22-3.8,10.68-8.31,16.14-15.9,19.22-8.07,3.32-20.41,5-36.55,5-4.27,0-9.72,0-17.32-.23-1.9-16.61-4.27-26.58-10.68-43,12.58,1.18,18.51,1.66,25.39,1.66,11.87,0,15.9-1.9,18-9,1.42-4.51,2.61-13.53,3.32-26.1,1.19-17.32,1.19-21.59,1.66-79.49H150.68c-7.59,13.52-13.53,22.54-21.36,31.32Zm-102.51,4H69.29V75.94H54.1Zm0,64.55H69.29V137.87H54.1Z" transform="translate(-12.34 -4.52)" style="fill:#fff"/><path d="M421.43,103.46c.48,8.55.71,12.34,1.66,21.12,5.46-8.54,7.6-13.28,10-20.64l34.41,20.88c-3.09,4.75-3.09,4.75-8.31,12.81-4.51,6.89-7.83,12.11-13.76,19.7a136.94,136.94,0,0,0,25.86,19.93c-4.51,29.19-10,43.43-19.22,50.78a21.26,21.26,0,0,1-13.76,5.22c-12.1,0-24.92-11.39-35.59-31.32a224,224,0,0,1-36.31,24.92c-6.64-11.16-11.15-17.56-18.51-26.11H330.31v11.87a183.15,183.15,0,0,0,1.19,19.69H287.84a127,127,0,0,0,1.42-19.46v-12.1H269.09a227.35,227.35,0,0,0-28,1.43V161.36a232.4,232.4,0,0,0,27.53,1.19h20.64v-5H269.57a202.47,202.47,0,0,0-20.88,1c.71-7.12.71-9.73.71-19.7V92.31c0-10,0-13-.71-19.69,5.93.71,8.3.71,21.83.71h79c8.31,0,11.87,0,15.67-.24L365,68.82c-3.32-.24-5-.24-8.54-.24H327.94c-6.64,0-10.68.24-17.56.71.48-6.64.48-8.77.48-18.27V24.45c0-6.17-.24-11.87-.72-18.51a183.41,183.41,0,0,0,21.36.95h20.17a189.75,189.75,0,0,0,22.54-.95c-.47,5.46-.47,8.3-.47,18.51V51c0,10.44,0,13.53.23,16.61,2.14,0,2.85,0,5.94-.23-.48-12.58-.48-12.58-1.19-43.9-.24-9.26-.47-14.48-1.19-18.75H421A57.84,57.84,0,0,0,420,16.38V19l23.73-10.2a277.06,277.06,0,0,1,23.73,41.28L438.28,63.6l2.14-.24c11.62-.71,15.42-1.18,23.49-2.84L466,100.14c-10.67.48-16.61,1-22.07,1.43Zm-177.49-79c0-6.17-.24-11.87-.71-18.51a183.11,183.11,0,0,0,21.35.95h19.7c10.44,0,17.08-.24,22.3-.95-.47,5.46-.47,8.3-.47,18.51V51c0,11.63,0,13.77.47,18.27-6.16-.47-10.67-.71-17.79-.71H261c-6.64,0-10.67.24-17.55.71.47-6.64.47-8.77.47-18.27ZM271.7,43.19h8.07v-10H271.7Zm10.21,56v5.94h8.3V99.19Zm0,27.05v5.94h8.3v-5.94Zm47.45-21.11h7.83V99.19h-7.83Zm0,27.05h7.83v-5.94h-7.83Zm42.95,43.42c6.89-4.75,10.68-7.83,17.09-13-3.56-15.9-5.7-33.22-7.36-55.76a6.12,6.12,0,0,0-2.37.23,50.57,50.57,0,0,0-9,1v30.85a168.53,168.53,0,0,0,1,19.22c-5-.47-7.12-.47-18.27-.47h-23v5h14.48a232.22,232.22,0,0,0,27.52-1.19ZM338.62,43.19h7.83v-10h-7.83Zm95.86,20.65A207.78,207.78,0,0,0,420,34.65v5.93c0,4.75,0,4.75.47,24.21Zm4.75,118.64c1.42,0,2.85-6.17,5.22-23.73-4,5.22-5.22,6.41-10.92,13.29C438,182.25,438.28,182.48,439.23,182.48Z" transform="translate(-12.34 -4.52)" style="fill:#fff"/><path d="M504,80.45A146.06,146.06,0,0,0,482,62.89c19-15.43,28.71-30.37,31.56-48.65,8.3,1.19,15,1.43,30.13,1.43,52.92,0,101.33-4.27,118.41-10.44l31.8,31.32c-6.65,1.42-11.16,2.37-21.12,4A265.79,265.79,0,0,1,699.3,70.24L684.83,82.11c-.24,7.35-.24,10.68-.24,15v11.86c10.44,0,15.19-.23,22.07-1.18v40.57c-5.93-.95-10.91-1.18-22.07-1.18v15.66c0,14.71.24,22.06,1.19,30.13h-41v-7.83H611.51V201c0,14.71-3.32,22.78-11.39,26.81-6.17,3.09-17.32,4.51-36.54,4.51-6.41,0-11.16-.23-21.6-.71-1.66-14.95-4-24-10.2-37,13.76,1.9,23.25,2.61,31.56,2.61,5.22,0,6.41-1.18,6.41-6.4v-5.7H527a214.12,214.12,0,0,0-22.78,1.19V152.35a203.28,203.28,0,0,0,21.83,1h43.67V145h-61c-10.44,0-20.17.47-28.95,1.19V109.87c7.83.95,15.19,1.19,28.24,1.19h61.7v-7.83H525.37c-12.34,0-16.13.23-21.35.71Zm75.69-8.54a130.93,130.93,0,0,0-9.25-22.78c-10.92.23-15.9.47-29.66.47a132.61,132.61,0,0,1-12.11,22.31ZM654,43.43c-13.05,1.66-27.76,2.85-44.85,4a135.15,135.15,0,0,1,9.73,19.46l-24.67,5h59.32a200.48,200.48,0,0,0-15.9-16.38Zm-42.47,67.63h33.22v-7.83H611.51Zm33.22,42.24V145H611.51v8.31Z" transform="translate(-12.34 -4.52)" style="fill:#fff"/></g></g></svg>